<svg width="300" height="160" viewBox="0 0 300 160" fill="none" xmlns="http://www.w3.org/2000/svg">
<g filter="url(#filter0_d_805_109)">
<g clip-path="url(#clip0_805_109)">
<rect x="10" y="6" width="280" height="140" rx="12" fill="white"/>
<rect x="10" y="6" width="280" height="33" fill="#424D76"/>
<path d="M116.667 19.7403L116.667 19.7403C116.985 20.7738 117.544 21.622 118.5 21.902V22.098C117.544 22.378 116.985 23.2262 116.667 24.2597L116.667 24.2597C116.303 25.4442 116.259 26.8647 116.295 27.9264C116.325 28.7645 115.674 29.5 114.847 29.5H103.154C102.328 29.5 101.677 28.7645 101.706 27.9264L101.706 27.9264C101.743 26.8647 101.698 25.4442 101.334 24.2597C101.016 23.2258 100.456 22.3779 99.5 22.0979V21.9021C100.456 21.6221 101.016 20.7743 101.334 19.7403C101.698 18.5558 101.743 17.1353 101.706 16.0736C101.677 15.2355 102.328 14.5 103.154 14.5H114.847C115.674 14.5 116.325 15.2355 116.295 16.0736C116.259 17.1353 116.303 18.5558 116.667 19.7403Z" fill="url(#paint0_linear_805_109)" stroke="white"/>
<g filter="url(#filter1_d_805_109)">
<path d="M109.434 26.2532C111.281 26.2532 112.395 25.3451 112.395 23.8471C112.395 22.7149 111.6 21.8951 110.421 21.7654V21.7182C111.287 21.5767 111.967 20.7687 111.967 19.8665C111.967 18.5809 110.956 17.7434 109.416 17.7434H105.949V26.2532H109.434ZM107.297 18.8226H109.091C110.066 18.8226 110.619 19.259 110.619 20.0493C110.619 20.8926 109.975 21.3643 108.808 21.3643H107.297V18.8226V18.8226ZM107.297 25.174V22.3728H109.079C110.354 22.3728 111.016 22.8446 111.016 23.7646C111.016 24.6845 110.373 25.174 109.157 25.174H107.297V25.174Z" fill="url(#paint1_linear_805_109)"/>
</g>
<path d="M124.998 28V16.5188H129.595C130.439 16.5188 131.144 16.644 131.708 16.8944C132.273 17.1448 132.697 17.4924 132.981 17.9371C133.265 18.3781 133.407 18.8864 133.407 19.462C133.407 19.9105 133.317 20.3047 133.138 20.6448C132.958 20.9812 132.712 21.2578 132.398 21.4745C132.088 21.6876 131.733 21.8389 131.333 21.9286V22.0408C131.77 22.0594 132.179 22.1828 132.56 22.4108C132.945 22.6387 133.257 22.9583 133.497 23.3694C133.736 23.7768 133.855 24.2626 133.855 24.827C133.855 25.4362 133.704 25.9799 133.401 26.4583C133.102 26.933 132.659 27.3086 132.073 27.5852C131.486 27.8617 130.763 28 129.903 28H124.998ZM127.425 26.0155H129.404C130.081 26.0155 130.574 25.8865 130.884 25.6286C131.194 25.367 131.35 25.0194 131.35 24.5859C131.35 24.2682 131.273 23.9879 131.12 23.745C130.966 23.5021 130.748 23.3115 130.464 23.1732C130.183 23.0349 129.849 22.9658 129.46 22.9658H127.425V26.0155ZM127.425 21.3232H129.225C129.557 21.3232 129.853 21.2653 130.111 21.1494C130.372 21.0298 130.578 20.8616 130.727 20.6448C130.881 20.4281 130.957 20.1683 130.957 19.8656C130.957 19.4508 130.809 19.1163 130.514 18.8621C130.223 18.608 129.808 18.4809 129.27 18.4809H127.425V21.3232ZM139.281 28.1682C138.41 28.1682 137.657 27.9832 137.021 27.6132C136.39 27.2394 135.902 26.7199 135.558 26.0547C135.214 25.3857 135.043 24.6102 135.043 23.7282C135.043 22.8387 135.214 22.0613 135.558 21.3961C135.902 20.7271 136.39 20.2076 137.021 19.8376C137.657 19.4638 138.41 19.277 139.281 19.277C140.152 19.277 140.903 19.4638 141.534 19.8376C142.17 20.2076 142.659 20.7271 143.003 21.3961C143.347 22.0613 143.519 22.8387 143.519 23.7282C143.519 24.6102 143.347 25.3857 143.003 26.0547C142.659 26.7199 142.17 27.2394 141.534 27.6132C140.903 27.9832 140.152 28.1682 139.281 28.1682ZM139.292 26.3182C139.688 26.3182 140.019 26.2061 140.284 25.9818C140.55 25.7538 140.75 25.4436 140.884 25.0512C141.022 24.6588 141.091 24.2122 141.091 23.7114C141.091 23.2106 141.022 22.7639 140.884 22.3715C140.75 21.9791 140.55 21.6689 140.284 21.4409C140.019 21.2129 139.688 21.0989 139.292 21.0989C138.892 21.0989 138.556 21.2129 138.283 21.4409C138.014 21.6689 137.81 21.9791 137.672 22.3715C137.537 22.7639 137.47 23.2106 137.47 23.7114C137.47 24.2122 137.537 24.6588 137.672 25.0512C137.81 25.4436 138.014 25.7538 138.283 25.9818C138.556 26.2061 138.892 26.3182 139.292 26.3182ZM148.962 28.1682C148.092 28.1682 147.338 27.9832 146.703 27.6132C146.072 27.2394 145.584 26.7199 145.24 26.0547C144.896 25.3857 144.724 24.6102 144.724 23.7282C144.724 22.8387 144.896 22.0613 145.24 21.3961C145.584 20.7271 146.072 20.2076 146.703 19.8376C147.338 19.4638 148.092 19.277 148.962 19.277C149.833 19.277 150.584 19.4638 151.216 19.8376C151.851 20.2076 152.341 20.7271 152.685 21.3961C153.029 22.0613 153.201 22.8387 153.201 23.7282C153.201 24.6102 153.029 25.3857 152.685 26.0547C152.341 26.7199 151.851 27.2394 151.216 27.6132C150.584 27.9832 149.833 28.1682 148.962 28.1682ZM148.974 26.3182C149.37 26.3182 149.701 26.2061 149.966 25.9818C150.231 25.7538 150.431 25.4436 150.566 25.0512C150.704 24.6588 150.773 24.2122 150.773 23.7114C150.773 23.2106 150.704 22.7639 150.566 22.3715C150.431 21.9791 150.231 21.6689 149.966 21.4409C149.701 21.2129 149.37 21.0989 148.974 21.0989C148.574 21.0989 148.237 21.2129 147.965 21.4409C147.695 21.6689 147.492 21.9791 147.353 22.3715C147.219 22.7639 147.152 23.2106 147.152 23.7114C147.152 24.2122 147.219 24.6588 147.353 25.0512C147.492 25.4436 147.695 25.7538 147.965 25.9818C148.237 26.2061 148.574 26.3182 148.974 26.3182ZM159.334 19.3891V21.183H154.148V19.3891H159.334ZM155.325 17.3261H157.713V25.3539C157.713 25.5744 157.747 25.7464 157.814 25.8697C157.882 25.9893 157.975 26.0734 158.095 26.122C158.218 26.1706 158.36 26.1948 158.521 26.1948C158.633 26.1948 158.745 26.1855 158.857 26.1668C158.969 26.1444 159.055 26.1276 159.115 26.1164L159.491 27.8935C159.371 27.9309 159.203 27.9738 158.986 28.0224C158.769 28.0747 158.506 28.1065 158.196 28.1177C157.62 28.1402 157.115 28.0635 156.682 27.8879C156.252 27.7122 155.918 27.4394 155.678 27.0694C155.439 26.6994 155.322 26.2322 155.325 25.6679V17.3261ZM167.946 21.8445L165.76 21.9791C165.722 21.7922 165.642 21.624 165.518 21.4745C165.395 21.3213 165.233 21.1998 165.031 21.1102C164.833 21.0167 164.595 20.97 164.319 20.97C163.949 20.97 163.637 21.0485 163.383 21.2055C163.128 21.3587 163.001 21.5642 163.001 21.8221C163.001 22.0277 163.084 22.2015 163.248 22.3435C163.412 22.4855 163.695 22.5995 164.095 22.6855L165.653 22.9994C166.49 23.1713 167.114 23.4479 167.525 23.8291C167.937 24.2103 168.142 24.7111 168.142 25.3315C168.142 25.8959 167.976 26.3911 167.643 26.8171C167.314 27.2432 166.862 27.5758 166.287 27.815C165.715 28.0505 165.055 28.1682 164.308 28.1682C163.168 28.1682 162.259 27.9309 161.583 27.4562C160.91 26.9778 160.516 26.3275 160.4 25.5053L162.749 25.382C162.82 25.7295 162.992 25.9949 163.265 26.178C163.538 26.3574 163.887 26.4471 164.313 26.4471C164.732 26.4471 165.068 26.3668 165.322 26.2061C165.58 26.0416 165.711 25.8305 165.715 25.5726C165.711 25.3558 165.619 25.1783 165.44 25.04C165.261 24.898 164.984 24.7896 164.61 24.7148L163.119 24.4177C162.278 24.2495 161.652 23.958 161.241 23.5432C160.834 23.1283 160.63 22.5995 160.63 21.9567C160.63 21.4035 160.779 20.927 161.078 20.5271C161.381 20.1272 161.805 19.8189 162.351 19.6021C162.9 19.3854 163.543 19.277 164.28 19.277C165.367 19.277 166.223 19.5068 166.847 19.9665C167.475 20.4262 167.841 21.0522 167.946 21.8445ZM174.226 19.3891V21.183H169.04V19.3891H174.226ZM170.218 17.3261H172.606V25.3539C172.606 25.5744 172.64 25.7464 172.707 25.8697C172.774 25.9893 172.868 26.0734 172.987 26.122C173.11 26.1706 173.253 26.1948 173.413 26.1948C173.525 26.1948 173.637 26.1855 173.75 26.1668C173.862 26.1444 173.948 26.1276 174.007 26.1164L174.383 27.8935C174.263 27.9309 174.095 27.9738 173.879 28.0224C173.662 28.0747 173.398 28.1065 173.088 28.1177C172.513 28.1402 172.008 28.0635 171.574 27.8879C171.145 27.7122 170.81 27.4394 170.571 27.0694C170.332 26.6994 170.214 26.2322 170.218 25.6679V17.3261ZM175.782 28V19.3891H178.097V20.8915H178.187C178.344 20.3571 178.607 19.9534 178.977 19.6806C179.347 19.404 179.773 19.2658 180.255 19.2658C180.375 19.2658 180.504 19.2732 180.642 19.2882C180.781 19.3031 180.902 19.3237 181.007 19.3498V21.4689C180.895 21.4353 180.739 21.4054 180.541 21.3792C180.343 21.3531 180.162 21.34 179.998 21.34C179.646 21.34 179.332 21.4166 179.056 21.5698C178.783 21.7193 178.566 21.9286 178.405 22.1977C178.248 22.4668 178.17 22.777 178.17 23.1283V28H175.782ZM184.45 28.1626C183.901 28.1626 183.411 28.0673 182.981 27.8767C182.552 27.6823 182.211 27.3964 181.961 27.0189C181.714 26.6377 181.591 26.1631 181.591 25.595C181.591 25.1166 181.679 24.7148 181.855 24.3897C182.03 24.0645 182.269 23.8029 182.572 23.6048C182.875 23.4068 183.219 23.2573 183.604 23.1564C183.992 23.0555 184.4 22.9844 184.826 22.9433C185.327 22.891 185.73 22.8424 186.037 22.7976C186.343 22.749 186.566 22.678 186.704 22.5845C186.842 22.4911 186.911 22.3528 186.911 22.1697V22.1361C186.911 21.781 186.799 21.5063 186.575 21.312C186.354 21.1176 186.04 21.0205 185.633 21.0205C185.203 21.0205 184.861 21.1158 184.607 21.3064C184.353 21.4932 184.185 21.7287 184.103 22.0127L181.894 21.8333C182.006 21.3101 182.226 20.8579 182.555 20.4767C182.884 20.0917 183.308 19.7965 183.828 19.5909C184.351 19.3816 184.957 19.277 185.644 19.277C186.123 19.277 186.58 19.333 187.018 19.4452C187.459 19.5573 187.849 19.7311 188.189 19.9665C188.533 20.202 188.804 20.5047 189.002 20.8747C189.2 21.241 189.299 21.6801 189.299 22.1921V28H187.035V26.8059H186.967C186.829 27.075 186.644 27.3123 186.412 27.5179C186.181 27.7197 185.902 27.8785 185.577 27.9944C185.252 28.1065 184.876 28.1626 184.45 28.1626ZM185.134 26.5144C185.485 26.5144 185.796 26.4453 186.065 26.307C186.334 26.1649 186.545 25.9743 186.698 25.7352C186.851 25.496 186.928 25.225 186.928 24.9223V24.0085C186.853 24.0571 186.751 24.1019 186.62 24.143C186.493 24.1804 186.349 24.2159 186.188 24.2495C186.027 24.2794 185.867 24.3075 185.706 24.3336C185.545 24.3561 185.399 24.3766 185.269 24.3953C184.988 24.4364 184.744 24.5018 184.534 24.5915C184.325 24.6812 184.162 24.8027 184.047 24.9559C183.931 25.1054 183.873 25.2923 183.873 25.5165C183.873 25.8417 183.99 26.0902 184.226 26.2621C184.465 26.4303 184.768 26.5144 185.134 26.5144ZM191.152 31.2291V19.3891H193.507V20.8355H193.613C193.718 20.6037 193.869 20.3683 194.067 20.1291C194.269 19.8862 194.531 19.6843 194.852 19.5236C195.177 19.3592 195.581 19.277 196.063 19.277C196.691 19.277 197.27 19.4414 197.801 19.7703C198.332 20.0955 198.756 20.5869 199.074 21.2447C199.391 21.8987 199.55 22.7191 199.55 23.7058C199.55 24.6663 199.395 25.4773 199.085 26.1388C198.778 26.7966 198.36 27.2955 197.829 27.6356C197.302 27.972 196.712 28.1402 196.057 28.1402C195.594 28.1402 195.2 28.0635 194.875 27.9103C194.553 27.7571 194.29 27.5646 194.084 27.3329C193.879 27.0974 193.722 26.8601 193.613 26.6209H193.54V31.2291H191.152ZM193.49 23.6945C193.49 24.2066 193.561 24.6532 193.703 25.0344C193.845 25.4156 194.051 25.7127 194.32 25.9258C194.589 26.1351 194.916 26.2397 195.301 26.2397C195.689 26.2397 196.018 26.1332 196.287 25.9202C196.556 25.7034 196.76 25.4044 196.898 25.0232C197.04 24.6382 197.111 24.1954 197.111 23.6945C197.111 23.1975 197.042 22.7602 196.904 22.3827C196.766 22.0053 196.562 21.71 196.293 21.497C196.024 21.2839 195.693 21.1774 195.301 21.1774C194.912 21.1774 194.583 21.2802 194.314 21.4858C194.049 21.6913 193.845 21.9828 193.703 22.3603C193.561 22.7378 193.49 23.1825 193.49 23.6945Z" fill="white"/>
<g clip-path="url(#clip1_805_109)">
<path d="M97.0047 85.3457C97.2087 86.5203 97.3105 87.7104 97.3088 88.9026C97.3088 94.2269 95.4056 98.7288 92.0938 101.776H92.0981C89.2019 104.451 85.2206 106 80.5 106C75.8587 106 71.4075 104.156 68.1256 100.874C64.8437 97.5925 63 93.1413 63 88.5001C63 83.8588 64.8437 79.4076 68.1256 76.1257C71.4075 72.8438 75.8587 71.0001 80.5 71.0001C84.8442 70.9492 89.0397 72.5813 92.2075 75.5544L87.2113 80.5507C85.4052 78.8291 82.9948 77.8863 80.5 77.9257C75.9347 77.9257 72.0563 81.0057 70.6738 85.1532C69.9407 87.3265 69.9407 89.6802 70.6738 91.8535H70.6803C72.0694 95.9944 75.9413 99.0744 80.5066 99.0744C82.8647 99.0744 84.8903 98.4707 86.4609 97.4032H86.4544C87.3664 96.799 88.1465 96.0163 88.7477 95.1023C89.3488 94.1884 89.7586 93.1621 89.9522 92.0854H80.5V85.3479L97.0047 85.3457Z" fill="black"/>
</g>
<g clip-path="url(#clip2_805_109)">
<path d="M144.073 97.2499H151.675C155.621 97.2499 157.992 95.2637 157.992 92.0087C157.992 89.5981 156.327 87.8174 153.827 87.5593V87.3406C155.647 87.0343 157.069 85.3062 157.069 83.3681C157.069 80.5243 154.98 78.7524 151.508 78.7524H144.073V97.2499ZM146.945 86.5859V81.1893H150.839C152.967 81.1893 154.212 82.189 154.212 83.8953C154.212 85.6496 152.891 86.5859 150.353 86.5859H146.945ZM146.945 94.8153V88.8543H150.931C153.635 88.8543 155.059 89.8671 155.059 91.8031C155.059 93.7631 153.687 94.8153 151.097 94.8153H146.945Z" fill="black"/>
<path d="M133 79.75C133 77.4294 133.922 75.2038 135.563 73.5628C137.204 71.9219 139.429 71 141.75 71H159.25C161.571 71 163.796 71.9219 165.437 73.5628C167.078 75.2038 168 77.4294 168 79.75V97.25C168 99.5706 167.078 101.796 165.437 103.437C163.796 105.078 161.571 106 159.25 106H141.75C139.429 106 137.204 105.078 135.563 103.437C133.922 101.796 133 99.5706 133 97.25V79.75ZM141.75 73.1875C140.01 73.1875 138.34 73.8789 137.11 75.1096C135.879 76.3403 135.188 78.0095 135.188 79.75V97.25C135.188 98.9905 135.879 100.66 137.11 101.89C138.34 103.121 140.01 103.812 141.75 103.812H159.25C160.99 103.812 162.66 103.121 163.89 101.89C165.121 100.66 165.812 98.9905 165.812 97.25V79.75C165.812 78.0095 165.121 76.3403 163.89 75.1096C162.66 73.8789 160.99 73.1875 159.25 73.1875H141.75Z" fill="black"/>
</g>
<g clip-path="url(#clip3_805_109)">
<path d="M220.5 71C210.831 71 203 78.8312 203 88.5C203 96.2437 208.009 102.784 214.966 105.103C215.841 105.256 216.169 104.731 216.169 104.272C216.169 103.856 216.147 102.478 216.147 101.013C211.75 101.822 210.612 99.9406 210.262 98.9562C210.066 98.4531 209.213 96.9 208.469 96.4844C207.856 96.1562 206.981 95.3469 208.447 95.325C209.825 95.3031 210.809 96.5937 211.138 97.1187C212.713 99.7656 215.228 99.0219 216.234 98.5625C216.388 97.425 216.847 96.6594 217.35 96.2219C213.456 95.7844 209.388 94.275 209.388 87.5812C209.388 85.6781 210.066 84.1031 211.181 82.8781C211.006 82.4406 210.394 80.6469 211.356 78.2406C211.356 78.2406 212.822 77.7813 216.169 80.0344C217.569 79.6406 219.056 79.4437 220.544 79.4437C222.031 79.4437 223.519 79.6406 224.919 80.0344C228.266 77.7594 229.731 78.2406 229.731 78.2406C230.694 80.6469 230.081 82.4406 229.906 82.8781C231.022 84.1031 231.7 85.6562 231.7 87.5812C231.7 94.2969 227.609 95.7844 223.716 96.2219C224.35 96.7687 224.897 97.8188 224.897 99.4594C224.897 101.8 224.875 103.681 224.875 104.272C224.875 104.731 225.203 105.278 226.078 105.103C229.552 103.931 232.571 101.698 234.71 98.7195C236.849 95.741 237.999 92.1668 238 88.5C238 78.8312 230.169 71 220.5 71Z" fill="black"/>
</g>
</g>
<rect x="10.5" y="6.5" width="279" height="139" rx="11.5" stroke="#3F4D79"/>
</g>
<defs>
<filter id="filter0_d_805_109" x="0" y="0" width="300" height="160" filterUnits="userSpaceOnUse" color-interpolation-filters="sRGB">
<feFlood flood-opacity="0" result="BackgroundImageFix"/>
<feColorMatrix in="SourceAlpha" type="matrix" values="0 0 0 0 0 0 0 0 0 0 0 0 0 0 0 0 0 0 127 0" result="hardAlpha"/>
<feMorphology radius="2" operator="erode" in="SourceAlpha" result="effect1_dropShadow_805_109"/>
<feOffset dy="4"/>
<feGaussianBlur stdDeviation="6"/>
<feComposite in2="hardAlpha" operator="out"/>
<feColorMatrix type="matrix" values="0 0 0 0 0.258824 0 0 0 0 0.301961 0 0 0 0 0.462745 0 0 0 1 0"/>
<feBlend mode="normal" in2="BackgroundImageFix" result="effect1_dropShadow_805_109"/>
<feBlend mode="normal" in="SourceGraphic" in2="effect1_dropShadow_805_109" result="shape"/>
</filter>
<filter id="filter1_d_805_109" x="89.9493" y="5.74341" width="38.4453" height="40.5098" filterUnits="userSpaceOnUse" color-interpolation-filters="sRGB">
<feFlood flood-opacity="0" result="BackgroundImageFix"/>
<feColorMatrix in="SourceAlpha" type="matrix" values="0 0 0 0 0 0 0 0 0 0 0 0 0 0 0 0 0 0 127 0" result="hardAlpha"/>
<feOffset dy="4"/>
<feGaussianBlur stdDeviation="8"/>
<feColorMatrix type="matrix" values="0 0 0 0 0 0 0 0 0 0 0 0 0 0 0 0 0 0 0.15 0"/>
<feBlend mode="normal" in2="BackgroundImageFix" result="effect1_dropShadow_805_109"/>
<feBlend mode="normal" in="SourceGraphic" in2="effect1_dropShadow_805_109" result="shape"/>
</filter>
<linearGradient id="paint0_linear_805_109" x1="101.972" y1="14.4235" x2="119.501" y2="28.284" gradientUnits="userSpaceOnUse">
<stop stop-color="#9013FE"/>
<stop offset="1" stop-color="#6610F2"/>
</linearGradient>
<linearGradient id="paint1_linear_805_109" x1="106.559" y1="18.3035" x2="110.488" y2="24.9227" gradientUnits="userSpaceOnUse">
<stop stop-color="white"/>
<stop offset="1" stop-color="#F1E5FC"/>
</linearGradient>
<clipPath id="clip0_805_109">
<rect x="10" y="6" width="280" height="140" rx="12" fill="white"/>
</clipPath>
<clipPath id="clip1_805_109">
<rect width="35" height="35" fill="white" transform="translate(63 71)"/>
</clipPath>
<clipPath id="clip2_805_109">
<rect width="35" height="35" fill="white" transform="translate(133 71)"/>
</clipPath>
<clipPath id="clip3_805_109">
<rect width="35" height="35" fill="white" transform="translate(203 71)"/>
</clipPath>
</defs>
</svg>
