<svg width="300" height="160" viewBox="0 0 300 160" fill="none" xmlns="http://www.w3.org/2000/svg">
<g filter="url(#filter0_d_805_150)">
<rect x="10" y="6" width="280" height="140" rx="12" fill="white"/>
<rect x="10.5" y="6.5" width="279" height="139" rx="11.5" stroke="#3F4D79"/>
<path d="M10 18C10 11.3726 15.3726 6 22 6H278C284.627 6 290 11.3726 290 18V39H10V18Z" fill="#424D76"/>
<path d="M102.333 16.8304C102.119 17.1637 102 17.5446 102 17.9255V26.2096C102 26.781 102.309 27.3285 102.809 27.6141L110.308 31.8752C110.927 32.2323 111.689 31.78 111.689 31.0659V22.1866L102.333 16.8304Z" fill="#FF328B"/>
<path d="M128.688 27V15.5188H133.285C134.13 15.5188 134.835 15.644 135.399 15.8944C135.963 16.1448 136.387 16.4924 136.671 16.9371C136.956 17.3781 137.098 17.8864 137.098 18.462C137.098 18.9105 137.008 19.3047 136.828 19.6448C136.649 19.9812 136.402 20.2578 136.088 20.4745C135.778 20.6876 135.423 20.8389 135.023 20.9286V21.0408C135.461 21.0594 135.87 21.1828 136.251 21.4108C136.636 21.6387 136.948 21.9583 137.187 22.3694C137.426 22.7768 137.546 23.2626 137.546 23.827C137.546 24.4362 137.395 24.9799 137.092 25.4583C136.793 25.933 136.35 26.3086 135.763 26.5852C135.177 26.8617 134.453 27 133.594 27H128.688ZM131.116 25.0155H133.095C133.771 25.0155 134.265 24.8865 134.575 24.6286C134.885 24.367 135.04 24.0194 135.04 23.5859C135.04 23.2682 134.963 22.9879 134.81 22.745C134.657 22.5021 134.438 22.3115 134.154 22.1732C133.874 22.0349 133.54 21.9658 133.151 21.9658H131.116V25.0155ZM131.116 20.3232H132.915C133.248 20.3232 133.543 20.2653 133.801 20.1494C134.063 20.0298 134.268 19.8616 134.418 19.6448C134.571 19.4281 134.648 19.1683 134.648 18.8656C134.648 18.4508 134.5 18.1163 134.205 17.8621C133.913 17.608 133.498 17.4809 132.96 17.4809H131.116V20.3232ZM142.971 27.1682C142.1 27.1682 141.347 26.9832 140.712 26.6132C140.08 26.2394 139.593 25.7199 139.249 25.0547C138.905 24.3857 138.733 23.6102 138.733 22.7282C138.733 21.8387 138.905 21.0613 139.249 20.3961C139.593 19.7271 140.08 19.2076 140.712 18.8376C141.347 18.4638 142.1 18.277 142.971 18.277C143.842 18.277 144.593 18.4638 145.225 18.8376C145.86 19.2076 146.35 19.7271 146.694 20.3961C147.038 21.0613 147.209 21.8387 147.209 22.7282C147.209 23.6102 147.038 24.3857 146.694 25.0547C146.35 25.7199 145.86 26.2394 145.225 26.6132C144.593 26.9832 143.842 27.1682 142.971 27.1682ZM142.982 25.3182C143.379 25.3182 143.709 25.2061 143.975 24.9818C144.24 24.7538 144.44 24.4436 144.575 24.0512C144.713 23.6588 144.782 23.2122 144.782 22.7114C144.782 22.2106 144.713 21.7639 144.575 21.3715C144.44 20.9791 144.24 20.6689 143.975 20.4409C143.709 20.2129 143.379 20.0989 142.982 20.0989C142.583 20.0989 142.246 20.2129 141.973 20.4409C141.704 20.6689 141.501 20.9791 141.362 21.3715C141.228 21.7639 141.161 22.2106 141.161 22.7114C141.161 23.2122 141.228 23.6588 141.362 24.0512C141.501 24.4436 141.704 24.7538 141.973 24.9818C142.246 25.2061 142.583 25.3182 142.982 25.3182ZM150.45 18.3891L152.031 21.3995L153.651 18.3891H156.101L153.606 22.6945L156.168 27H153.729L152.031 24.0232L150.36 27H147.893L150.45 22.6945L147.983 18.3891H150.45ZM159.991 15.5188V27H157.564V15.5188H159.991ZM165.834 27.1682C164.952 27.1682 164.193 26.9813 163.558 26.6076C162.927 26.2301 162.441 25.7069 162.101 25.0379C161.764 24.3689 161.596 23.599 161.596 22.7282C161.596 21.8462 161.766 21.0725 162.106 20.4073C162.45 19.7383 162.938 19.2169 163.569 18.8432C164.201 18.4657 164.952 18.277 165.823 18.277C166.574 18.277 167.232 18.4134 167.796 18.6862C168.361 18.959 168.807 19.3421 169.136 19.8355C169.465 20.3288 169.646 20.9081 169.68 21.5733H167.426C167.363 21.1435 167.195 20.7978 166.922 20.5362C166.653 20.2709 166.299 20.1382 165.862 20.1382C165.492 20.1382 165.169 20.2391 164.892 20.4409C164.62 20.639 164.407 20.9286 164.253 21.3098C164.1 21.6911 164.023 22.1526 164.023 22.6945C164.023 23.2439 164.098 23.7111 164.248 24.0961C164.401 24.481 164.616 24.7744 164.892 24.9762C165.169 25.178 165.492 25.2789 165.862 25.2789C166.135 25.2789 166.38 25.2229 166.597 25.1108C166.817 24.9986 166.998 24.8361 167.14 24.623C167.286 24.4063 167.381 24.1465 167.426 23.8438H169.68C169.643 24.5016 169.463 25.0809 169.142 25.5817C168.824 26.0787 168.385 26.4674 167.824 26.7477C167.264 27.028 166.6 27.1682 165.834 27.1682ZM175.1 27.1682C174.229 27.1682 173.476 26.9832 172.84 26.6132C172.209 26.2394 171.721 25.7199 171.377 25.0547C171.033 24.3857 170.861 23.6102 170.861 22.7282C170.861 21.8387 171.033 21.0613 171.377 20.3961C171.721 19.7271 172.209 19.2076 172.84 18.8376C173.476 18.4638 174.229 18.277 175.1 18.277C175.97 18.277 176.722 18.4638 177.353 18.8376C177.989 19.2076 178.478 19.7271 178.822 20.3961C179.166 21.0613 179.338 21.8387 179.338 22.7282C179.338 23.6102 179.166 24.3857 178.822 25.0547C178.478 25.7199 177.989 26.2394 177.353 26.6132C176.722 26.9832 175.97 27.1682 175.1 27.1682ZM175.111 25.3182C175.507 25.3182 175.838 25.2061 176.103 24.9818C176.368 24.7538 176.568 24.4436 176.703 24.0512C176.841 23.6588 176.91 23.2122 176.91 22.7114C176.91 22.2106 176.841 21.7639 176.703 21.3715C176.568 20.9791 176.368 20.6689 176.103 20.4409C175.838 20.2129 175.507 20.0989 175.111 20.0989C174.711 20.0989 174.375 20.2129 174.102 20.4409C173.833 20.6689 173.629 20.9791 173.491 21.3715C173.356 21.7639 173.289 22.2106 173.289 22.7114C173.289 23.2122 173.356 23.6588 173.491 24.0512C173.629 24.4436 173.833 24.7538 174.102 24.9818C174.375 25.2061 174.711 25.3182 175.111 25.3182ZM183.279 22.0218V27H180.891V18.3891H183.167V19.9083H183.268C183.458 19.4075 183.778 19.0114 184.226 18.7198C184.675 18.4246 185.219 18.277 185.858 18.277C186.456 18.277 186.977 18.4078 187.422 18.6694C187.866 18.931 188.212 19.3047 188.459 19.7906C188.706 20.2727 188.829 20.8483 188.829 21.5173V27H186.441V21.9433C186.444 21.4164 186.31 21.0053 186.037 20.71C185.764 20.411 185.389 20.2615 184.91 20.2615C184.589 20.2615 184.305 20.3307 184.058 20.4689C183.815 20.6072 183.625 20.809 183.486 21.0744C183.352 21.336 183.283 21.6518 183.279 22.0218ZM197.876 20.8445L195.689 20.9791C195.652 20.7922 195.572 20.624 195.448 20.4745C195.325 20.3213 195.162 20.1998 194.96 20.1102C194.762 20.0167 194.525 19.97 194.249 19.97C193.879 19.97 193.566 20.0485 193.312 20.2055C193.058 20.3587 192.931 20.5642 192.931 20.8221C192.931 21.0277 193.013 21.2015 193.178 21.3435C193.342 21.4855 193.624 21.5995 194.024 21.6855L195.583 21.9994C196.42 22.1713 197.044 22.4479 197.455 22.8291C197.866 23.2103 198.072 23.7111 198.072 24.3315C198.072 24.8959 197.906 25.3911 197.573 25.8171C197.244 26.2432 196.792 26.5758 196.216 26.815C195.644 27.0505 194.985 27.1682 194.237 27.1682C193.097 27.1682 192.189 26.9309 191.513 26.4562C190.84 25.9778 190.446 25.3275 190.33 24.5053L192.679 24.382C192.75 24.7295 192.922 24.9949 193.195 25.178C193.467 25.3574 193.817 25.4471 194.243 25.4471C194.661 25.4471 194.998 25.3668 195.252 25.2061C195.51 25.0416 195.641 24.8305 195.644 24.5726C195.641 24.3558 195.549 24.1783 195.37 24.04C195.19 23.898 194.914 23.7896 194.54 23.7148L193.049 23.4177C192.208 23.2495 191.582 22.958 191.171 22.5432C190.763 22.1283 190.56 21.5995 190.56 20.9567C190.56 20.4035 190.709 19.927 191.008 19.5271C191.311 19.1272 191.735 18.8189 192.281 18.6021C192.83 18.3854 193.473 18.277 194.209 18.277C195.297 18.277 196.153 18.5068 196.777 18.9665C197.405 19.4262 197.771 20.0522 197.876 20.8445Z" fill="white"/>
<path d="M111.379 22.1865L119.521 18.0921C120.187 17.7588 120.211 16.8304 119.568 16.4733L112.117 12.2122C111.641 11.9504 111.07 11.9266 110.594 12.1646L102.833 16.0924C102.5 16.2591 102.214 16.5209 102 16.8304L111.379 22.1865Z" fill="#6DEAE7"/>
<path d="M95.8575 97.2757C95.3476 98.4643 94.7176 99.5978 93.9774 100.658C92.9885 102.071 92.1764 103.047 91.554 103.59C90.5872 104.478 89.5487 104.934 88.4383 104.96C87.6427 104.96 86.6815 104.734 85.5619 104.273C84.4386 103.815 83.4074 103.59 82.4627 103.59C81.4739 103.59 80.4132 103.815 79.277 104.273C78.1427 104.734 77.2256 104.975 76.524 104.997C75.4615 105.043 74.399 104.575 73.3401 103.59C72.6643 103.001 71.8191 101.988 70.8045 100.555C69.718 99.0287 68.8249 97.2517 68.1251 95.2317C67.3757 93.0458 67 90.9319 67 88.8841C67 86.54 67.5064 84.5162 68.521 82.8221C69.2885 81.4916 70.3856 80.3811 71.7068 79.5977C73.0095 78.8163 74.4967 78.3956 76.0158 78.3786C76.8628 78.3786 77.9732 78.6401 79.3488 79.1557C80.7244 79.6713 81.6083 79.9328 81.9932 79.9328C82.2841 79.9328 83.2619 79.6253 84.9266 79.0158C86.4974 78.4504 87.8232 78.2166 88.9097 78.3087C91.856 78.5462 94.0676 79.7063 95.5389 81.7982C92.9056 83.3948 91.6037 85.6285 91.6295 88.4956C91.6516 90.7293 92.4637 92.5873 94.0547 94.0623C94.7581 94.7354 95.5788 95.2741 96.4762 95.6515C96.281 96.2168 96.0748 96.7564 95.8575 97.2757ZM89.1049 70.7016C89.1049 72.451 88.464 74.0862 87.1916 75.598C85.6521 77.3953 83.7923 78.4357 81.7759 78.2718C81.7495 78.0518 81.7366 77.8305 81.7372 77.6089C81.7372 75.9277 82.4664 74.1304 83.7683 72.6591C84.4165 71.9151 85.2415 71.2945 86.2414 70.801C87.2395 70.3149 88.1823 70.046 89.0699 70C89.0938 70.2357 89.1049 70.4696 89.1049 70.7016Z" fill="black"/>
<path d="M155.976 73.5C152.599 73.5 149.851 76.2475 149.851 79.625C149.851 82.3445 151.645 84.6282 154.104 85.4262C153.848 87.0572 153.146 88.4012 151.951 89.4915C148.546 92.5942 142.279 92.8778 139.351 92.8288V81.9648C141.871 81.2052 143.726 78.89 143.726 76.125C143.726 72.7475 140.979 70 137.601 70C134.224 70 131.476 72.7475 131.476 76.125C131.476 78.89 133.331 81.2052 135.851 81.9648V93.0352C133.331 93.7948 131.476 96.11 131.476 98.875C131.476 102.252 134.224 105 137.601 105C140.979 105 143.726 102.252 143.726 98.875C143.726 97.9107 143.481 97.0113 143.084 96.1993C146.689 95.8738 151.234 94.8745 154.3 92.0868C156.219 90.342 157.329 88.1248 157.632 85.4927C160.202 84.7665 162.101 82.425 162.101 79.625C162.101 76.2475 159.354 73.5 155.976 73.5ZM134.976 76.125C134.976 74.6778 136.154 73.5 137.601 73.5C139.048 73.5 140.226 74.6778 140.226 76.125C140.226 77.5722 139.048 78.75 137.601 78.75C136.154 78.75 134.976 77.5722 134.976 76.125ZM137.601 101.5C136.154 101.5 134.976 100.322 134.976 98.875C134.977 98.1848 135.25 97.5228 135.735 97.0321C136.221 96.5415 136.88 96.2618 137.57 96.2535L137.797 96.271C138.141 96.2839 138.478 96.3642 138.79 96.5075C139.103 96.6508 139.384 96.8542 139.617 97.1061C139.851 97.3579 140.033 97.6534 140.152 97.9755C140.272 98.2976 140.327 98.6402 140.314 98.9835C140.301 99.3268 140.22 99.6643 140.077 99.9766C139.934 100.289 139.731 100.57 139.479 100.804C139.227 101.037 138.931 101.219 138.609 101.338C138.287 101.458 137.945 101.513 137.601 101.5ZM155.976 82.25C154.529 82.25 153.351 81.0723 153.351 79.625C153.351 78.1777 154.529 77 155.976 77C157.423 77 158.601 78.1777 158.601 79.625C158.601 81.0723 157.423 82.25 155.976 82.25Z" fill="black"/>
<path d="M231.472 85.8204C231.261 85.6611 231.017 85.5513 230.758 85.4991C230.499 85.4469 230.231 85.4536 229.975 85.5188C229.55 85.6375 229.111 85.7012 228.67 85.7082C225.769 85.7082 223.408 83.3476 223.403 80.5555C223.412 80.4959 223.431 80.3205 223.433 80.2609C223.444 79.9867 223.391 79.7137 223.278 79.4638C223.164 79.214 222.993 78.9943 222.779 78.8226C222.565 78.6509 222.314 78.5319 222.045 78.4753C221.777 78.4186 221.499 78.4259 221.234 78.4966C220.8 78.6188 220.352 78.6849 219.901 78.693C217 78.693 214.639 76.3324 214.639 73.4316C214.639 73.051 214.694 72.6529 214.813 72.1759C214.88 71.9036 214.882 71.6191 214.816 71.3462C214.751 71.0733 214.622 70.8201 214.438 70.6078C214.255 70.3954 214.023 70.2301 213.763 70.1258C213.503 70.0215 213.221 69.9811 212.942 70.0082C208.598 70.413 204.564 72.4289 201.632 75.6591C198.701 78.8893 197.084 83.0999 197.101 87.462C197.101 97.1325 204.969 105 214.639 105C224.31 105 232.177 97.1325 232.177 87.462C232.177 87.3761 232.172 87.2919 232.165 87.1814C232.159 86.9171 232.094 86.6575 231.974 86.4219C231.854 86.1863 231.683 85.9807 231.472 85.8204ZM208.501 76.9392C209.199 76.9392 209.868 77.2163 210.361 77.7097C210.855 78.2031 211.132 78.8722 211.132 79.5699C211.132 80.2676 210.855 80.9367 210.361 81.4301C209.868 81.9234 209.199 82.2006 208.501 82.2006C207.803 82.2006 207.134 81.9234 206.641 81.4301C206.147 80.9367 205.87 80.2676 205.87 79.5699C205.87 78.8722 206.147 78.2031 206.641 77.7097C207.134 77.2163 207.803 76.9392 208.501 76.9392ZM204.993 90.9696C204.648 90.9696 204.306 90.9016 203.987 90.7693C203.668 90.6371 203.378 90.4434 203.133 90.1991C202.889 89.9548 202.695 89.6648 202.563 89.3456C202.431 89.0264 202.363 88.6844 202.363 88.3389C202.363 87.9934 202.431 87.6513 202.563 87.3322C202.695 87.013 202.889 86.723 203.133 86.4787C203.378 86.2344 203.668 86.0406 203.987 85.9084C204.306 85.7762 204.648 85.7082 204.993 85.7082C205.691 85.7082 206.36 85.9854 206.854 86.4787C207.347 86.9721 207.624 87.6412 207.624 88.3389C207.624 89.0366 207.347 89.7057 206.854 90.1991C206.36 90.6924 205.691 90.9696 204.993 90.9696ZM210.255 97.9848C209.557 97.9848 208.888 97.7076 208.395 97.2143C207.901 96.7209 207.624 96.0518 207.624 95.3541C207.624 94.6564 207.901 93.9873 208.395 93.4939C208.888 93.0006 209.557 92.7234 210.255 92.7234C210.953 92.7234 211.622 93.0006 212.115 93.4939C212.608 93.9873 212.886 94.6564 212.886 95.3541C212.886 96.0518 212.608 96.7209 212.115 97.2143C211.622 97.7076 210.953 97.9848 210.255 97.9848ZM214.639 86.5851C214.639 85.8874 214.917 85.2183 215.41 84.7249C215.903 84.2316 216.572 83.9544 217.27 83.9544C217.968 83.9544 218.637 84.2316 219.13 84.7249C219.624 85.2183 219.901 85.8874 219.901 86.5851C219.901 87.2828 219.624 87.9519 219.13 88.4453C218.637 88.9386 217.968 89.2158 217.27 89.2158C216.572 89.2158 215.903 88.9386 215.41 88.4453C214.917 87.9519 214.639 87.2828 214.639 86.5851ZM220.778 97.9848C220.08 97.9848 219.411 97.7076 218.917 97.2143C218.424 96.7209 218.147 96.0518 218.147 95.3541C218.147 94.6564 218.424 93.9873 218.917 93.4939C219.411 93.0006 220.08 92.7234 220.778 92.7234C221.475 92.7234 222.144 93.0006 222.638 93.4939C223.131 93.9873 223.408 94.6564 223.408 95.3541C223.408 96.0518 223.131 96.7209 222.638 97.2143C222.144 97.7076 221.475 97.9848 220.778 97.9848Z" fill="black"/>
</g>
<defs>
<filter id="filter0_d_805_150" x="0" y="0" width="300" height="160" filterUnits="userSpaceOnUse" color-interpolation-filters="sRGB">
<feFlood flood-opacity="0" result="BackgroundImageFix"/>
<feColorMatrix in="SourceAlpha" type="matrix" values="0 0 0 0 0 0 0 0 0 0 0 0 0 0 0 0 0 0 127 0" result="hardAlpha"/>
<feMorphology radius="2" operator="erode" in="SourceAlpha" result="effect1_dropShadow_805_150"/>
<feOffset dy="4"/>
<feGaussianBlur stdDeviation="6"/>
<feComposite in2="hardAlpha" operator="out"/>
<feColorMatrix type="matrix" values="0 0 0 0 0.258824 0 0 0 0 0.301961 0 0 0 0 0.462745 0 0 0 1 0"/>
<feBlend mode="normal" in2="BackgroundImageFix" result="effect1_dropShadow_805_150"/>
<feBlend mode="normal" in="SourceGraphic" in2="effect1_dropShadow_805_150" result="shape"/>
</filter>
</defs>
</svg>
