<svg width="300" height="160" viewBox="0 0 300 160" fill="none" xmlns="http://www.w3.org/2000/svg">
<g filter="url(#filter0_d_805_219)">
<rect x="10" y="6" width="280" height="140" rx="12" fill="white"/>
<rect x="10.5" y="6.5" width="279" height="139" rx="11.5" stroke="#3F4D79"/>
<path d="M10 18C10 11.3726 15.3726 6 22 6H278C284.627 6 290 11.3726 290 18V39H10V18Z" fill="#424D76"/>
<path d="M123.998 28V16.5188H126.425V21.2559H131.353V16.5188H133.775V28H131.353V23.2573H126.425V28H123.998ZM139.656 28.1682C138.77 28.1682 138.007 27.9888 137.368 27.63C136.733 27.2675 136.243 26.7555 135.9 26.0939C135.556 25.4287 135.384 24.642 135.384 23.7338C135.384 22.848 135.556 22.0707 135.9 21.4017C136.243 20.7327 136.727 20.2113 137.352 19.8376C137.979 19.4638 138.716 19.277 139.56 19.277C140.128 19.277 140.657 19.3685 141.147 19.5517C141.64 19.7311 142.07 20.002 142.436 20.3645C142.806 20.7271 143.094 21.183 143.3 21.7324C143.505 22.2781 143.608 22.9172 143.608 23.6497V24.3056H136.337V22.8256H141.36C141.36 22.4818 141.285 22.1772 141.136 21.9118C140.986 21.6465 140.779 21.439 140.513 21.2895C140.252 21.1363 139.947 21.0597 139.6 21.0597C139.237 21.0597 138.916 21.1438 138.635 21.312C138.359 21.4764 138.142 21.6988 137.985 21.9791C137.828 22.2557 137.748 22.564 137.744 22.9041V24.3112C137.744 24.7373 137.822 25.1054 137.979 25.4156C138.14 25.7258 138.366 25.965 138.658 26.1332C138.949 26.3014 139.295 26.3855 139.695 26.3855C139.96 26.3855 140.203 26.3481 140.424 26.2733C140.644 26.1986 140.833 26.0865 140.99 25.937C141.147 25.7875 141.266 25.6043 141.349 25.3876L143.557 25.5333C143.445 26.064 143.215 26.5275 142.868 26.9236C142.524 27.3161 142.079 27.6225 141.534 27.843C140.992 28.0598 140.366 28.1682 139.656 28.1682ZM145.166 28V19.3891H147.482V20.8915H147.571C147.728 20.3571 147.992 19.9534 148.362 19.6806C148.732 19.404 149.158 19.2658 149.64 19.2658C149.76 19.2658 149.889 19.2732 150.027 19.2882C150.165 19.3031 150.287 19.3237 150.391 19.3498V21.4689C150.279 21.4353 150.124 21.4054 149.926 21.3792C149.728 21.3531 149.547 21.34 149.382 21.34C149.031 21.34 148.717 21.4166 148.44 21.5698C148.167 21.7193 147.951 21.9286 147.79 22.1977C147.633 22.4668 147.555 22.777 147.555 23.1283V28H145.166ZM155.116 28.1682C154.245 28.1682 153.492 27.9832 152.856 27.6132C152.225 27.2394 151.737 26.7199 151.393 26.0547C151.049 25.3857 150.878 24.6102 150.878 23.7282C150.878 22.8387 151.049 22.0613 151.393 21.3961C151.737 20.7271 152.225 20.2076 152.856 19.8376C153.492 19.4638 154.245 19.277 155.116 19.277C155.987 19.277 156.738 19.4638 157.369 19.8376C158.005 20.2076 158.494 20.7271 158.838 21.3961C159.182 22.0613 159.354 22.8387 159.354 23.7282C159.354 24.6102 159.182 25.3857 158.838 26.0547C158.494 26.7199 158.005 27.2394 157.369 27.6132C156.738 27.9832 155.987 28.1682 155.116 28.1682ZM155.127 26.3182C155.523 26.3182 155.854 26.2061 156.119 25.9818C156.385 25.7538 156.585 25.4436 156.719 25.0512C156.857 24.6588 156.926 24.2122 156.926 23.7114C156.926 23.2106 156.857 22.7639 156.719 22.3715C156.585 21.9791 156.385 21.6689 156.119 21.4409C155.854 21.2129 155.523 21.0989 155.127 21.0989C154.727 21.0989 154.391 21.2129 154.118 21.4409C153.849 21.6689 153.645 21.9791 153.507 22.3715C153.372 22.7639 153.305 23.2106 153.305 23.7114C153.305 24.2122 153.372 24.6588 153.507 25.0512C153.645 25.4436 153.849 25.7538 154.118 25.9818C154.391 26.2061 154.727 26.3182 155.127 26.3182ZM163.379 16.5188V28H160.952V16.5188H163.379ZM169.222 28.1682C168.34 28.1682 167.581 27.9813 166.946 27.6076C166.314 27.2301 165.828 26.7069 165.488 26.0379C165.152 25.3689 164.984 24.599 164.984 23.7282C164.984 22.8462 165.154 22.0725 165.494 21.4073C165.838 20.7383 166.326 20.2169 166.957 19.8432C167.589 19.4657 168.34 19.277 169.211 19.277C169.962 19.277 170.62 19.4134 171.184 19.6862C171.748 19.959 172.195 20.3421 172.524 20.8355C172.853 21.3288 173.034 21.9081 173.068 22.5733H170.814C170.751 22.1435 170.582 21.7978 170.31 21.5362C170.04 21.2709 169.687 21.1382 169.25 21.1382C168.88 21.1382 168.557 21.2391 168.28 21.4409C168.007 21.639 167.794 21.9286 167.641 22.3098C167.488 22.6911 167.411 23.1526 167.411 23.6945C167.411 24.2439 167.486 24.7111 167.635 25.0961C167.789 25.481 168.004 25.7744 168.28 25.9762C168.557 26.178 168.88 26.2789 169.25 26.2789C169.523 26.2789 169.768 26.2229 169.984 26.1108C170.205 25.9986 170.386 25.8361 170.528 25.623C170.674 25.4063 170.769 25.1465 170.814 24.8438H173.068C173.03 25.5016 172.851 26.0809 172.53 26.5817C172.212 27.0787 171.773 27.4674 171.212 27.7477C170.652 28.028 169.988 28.1682 169.222 28.1682ZM178.487 28.1682C177.617 28.1682 176.864 27.9832 176.228 27.6132C175.597 27.2394 175.109 26.7199 174.765 26.0547C174.421 25.3857 174.249 24.6102 174.249 23.7282C174.249 22.8387 174.421 22.0613 174.765 21.3961C175.109 20.7271 175.597 20.2076 176.228 19.8376C176.864 19.4638 177.617 19.277 178.487 19.277C179.358 19.277 180.109 19.4638 180.741 19.8376C181.376 20.2076 181.866 20.7271 182.21 21.3961C182.554 22.0613 182.726 22.8387 182.726 23.7282C182.726 24.6102 182.554 25.3857 182.21 26.0547C181.866 26.7199 181.376 27.2394 180.741 27.6132C180.109 27.9832 179.358 28.1682 178.487 28.1682ZM178.499 26.3182C178.895 26.3182 179.226 26.2061 179.491 25.9818C179.756 25.7538 179.956 25.4436 180.091 25.0512C180.229 24.6588 180.298 24.2122 180.298 23.7114C180.298 23.2106 180.229 22.7639 180.091 22.3715C179.956 21.9791 179.756 21.6689 179.491 21.4409C179.226 21.2129 178.895 21.0989 178.499 21.0989C178.099 21.0989 177.762 21.2129 177.49 21.4409C177.22 21.6689 177.017 21.9791 176.878 22.3715C176.744 22.7639 176.677 23.2106 176.677 23.7114C176.677 24.2122 176.744 24.6588 176.878 25.0512C177.017 25.4436 177.22 25.7538 177.49 25.9818C177.762 26.2061 178.099 26.3182 178.499 26.3182ZM186.667 23.0218V28H184.278V19.3891H186.555V20.9083H186.655C186.846 20.4075 187.166 20.0114 187.614 19.7198C188.063 19.4246 188.606 19.277 189.245 19.277C189.843 19.277 190.365 19.4078 190.81 19.6694C191.254 19.931 191.6 20.3047 191.847 20.7906C192.093 21.2727 192.217 21.8483 192.217 22.5173V28H189.828V22.9433C189.832 22.4164 189.698 22.0053 189.425 21.71C189.152 21.411 188.776 21.2615 188.298 21.2615C187.977 21.2615 187.693 21.3307 187.446 21.4689C187.203 21.6072 187.012 21.809 186.874 22.0744C186.74 22.336 186.67 22.6518 186.667 23.0218ZM201.263 21.8445L199.077 21.9791C199.04 21.7922 198.959 21.624 198.836 21.4745C198.713 21.3213 198.55 21.1998 198.348 21.1102C198.15 21.0167 197.913 20.97 197.636 20.97C197.266 20.97 196.954 21.0485 196.7 21.2055C196.446 21.3587 196.319 21.5642 196.319 21.8221C196.319 22.0277 196.401 22.2015 196.566 22.3435C196.73 22.4855 197.012 22.5995 197.412 22.6855L198.971 22.9994C199.808 23.1713 200.432 23.4479 200.843 23.8291C201.254 24.2103 201.46 24.7111 201.46 25.3315C201.46 25.8959 201.293 26.3911 200.961 26.8171C200.632 27.2432 200.18 27.5758 199.604 27.815C199.032 28.0505 198.373 28.1682 197.625 28.1682C196.485 28.1682 195.577 27.9309 194.901 27.4562C194.228 26.9778 193.834 26.3275 193.718 25.5053L196.067 25.382C196.138 25.7295 196.31 25.9949 196.582 26.178C196.855 26.3574 197.205 26.4471 197.631 26.4471C198.049 26.4471 198.386 26.3668 198.64 26.2061C198.898 26.0416 199.028 25.8305 199.032 25.5726C199.028 25.3558 198.937 25.1783 198.758 25.04C198.578 24.898 198.302 24.7896 197.928 24.7148L196.437 24.4177C195.596 24.2495 194.97 23.958 194.559 23.5432C194.151 23.1283 193.948 22.5995 193.948 21.9567C193.948 21.4035 194.097 20.927 194.396 20.5271C194.699 20.1272 195.123 19.8189 195.669 19.6021C196.218 19.3854 196.861 19.277 197.597 19.277C198.685 19.277 199.54 19.5068 200.165 19.9665C200.793 20.4262 201.159 21.0522 201.263 21.8445Z" fill="white"/>
<path d="M106.634 11.5L106.779 11.6377L107.5 12.3234L107.5 12.3235C109.228 13.9671 111.556 14.9725 114.122 14.9725C114.163 14.9725 114.203 14.9723 114.244 14.9718C114.244 14.9718 114.244 14.9718 114.245 14.9718L115.013 14.9621L115.38 14.9575L115.494 15.3065L115.734 16.0401L115.734 16.0404C116.156 17.3302 116.37 18.6788 116.369 20.0358M106.634 11.5L115.869 20.0353M106.634 11.5H106.434H106.434H106.234L106.09 11.6378L105.369 12.3235M106.634 11.5L105.369 12.3235M116.369 20.0358L115.869 20.0353M116.369 20.0358C116.369 20.0356 116.369 20.0355 116.369 20.0353H115.869M116.369 20.0358C116.368 25.9931 112.312 30.997 106.821 32.4166L106.821 32.4166L106.559 32.4841L106.434 32.5164L106.309 32.4841L106.048 32.4166L106.048 32.4165C100.557 30.997 96.5 25.9929 96.5 20.0353C96.5 18.6426 96.7223 17.2991 97.1343 16.0401L97.1343 16.0401L97.3745 15.3065L97.4888 14.9575L97.856 14.9621L98.624 14.9718L98.6184 15.4718M115.869 20.0353C115.869 25.7607 111.97 30.5689 106.696 31.9325L106.434 32L106.173 31.9325C100.899 30.5689 97 25.7607 97 20.0353C97 18.6961 97.2137 17.405 97.6095 16.1957L97.8497 15.4621L98.6184 15.4718M98.6184 15.4718L98.6247 14.9718L98.6243 14.9718M98.6184 15.4718C98.6612 15.4722 98.7042 15.4725 98.7471 15.4725C101.446 15.4725 103.897 14.4141 105.714 12.6857M98.6243 14.9718L106.434 12L105.714 12.6857M98.6243 14.9718C98.6651 14.9723 98.7061 14.9725 98.7471 14.9725C101.312 14.9725 103.641 13.9671 105.369 12.3235M98.6243 14.9718L105.369 12.3235M105.714 12.6857L105.369 12.3235M105.714 12.6857L105.369 12.3235L105.369 12.3235M99.5966 20.0353L99.5966 20.0349C99.596 19.3626 99.665 18.6925 99.8023 18.0351C102.282 17.8304 104.562 16.9113 106.434 15.4849C108.307 16.9113 110.586 17.8304 113.066 18.0351C113.201 18.6794 113.272 19.3484 113.272 20.0353C113.272 24.4035 110.391 28.0973 106.434 29.3004C102.478 28.0973 99.5966 24.4035 99.5966 20.0353Z" fill="#8B5CF6" stroke="white"/>
<path fill-rule="evenodd" clip-rule="evenodd" d="M73.375 76C71.6491 76 70.25 77.3991 70.25 79.125V84.1094C69.5393 84.1967 68.8315 84.293 68.1266 84.3985C65.7032 84.7611 64 86.8694 64 89.2595V99.75C64 102.511 66.2386 104.75 69 104.75H69.4494L69.191 107.592C69.0247 109.422 70.4656 111 72.3032 111H88.1968C90.0343 111 91.4753 109.422 91.309 107.592L91.0507 104.75H91.5C94.2615 104.75 96.5 102.511 96.5 99.75V89.2595C96.5 86.8694 94.7968 84.7611 92.3733 84.3985C91.6685 84.293 90.9607 84.1967 90.25 84.1094V79.125C90.25 77.3991 88.8508 76 87.125 76H73.375ZM87.75 83.8416V79.125C87.75 78.7798 87.4702 78.5 87.125 78.5H73.375C73.0298 78.5 72.75 78.7798 72.75 79.125V83.8416C75.22 83.6155 77.7217 83.5 80.25 83.5C82.7783 83.5 85.28 83.6155 87.75 83.8416ZM87.389 97.616C87.6845 97.6465 87.916 97.883 87.943 98.1788L88.8192 107.818C88.8525 108.184 88.5643 108.5 88.1968 108.5H72.3032C71.9357 108.5 71.6475 108.184 71.6807 107.818L72.5571 98.1788C72.584 97.883 72.8154 97.6465 73.111 97.616C75.4573 97.374 77.839 97.25 80.25 97.25C82.661 97.25 85.0427 97.374 87.389 97.616ZM89 91C89 90.3097 89.5597 89.75 90.25 89.75H90.2625C90.9528 89.75 91.5125 90.3097 91.5125 91V91.0125C91.5125 91.7028 90.9528 92.2625 90.2625 92.2625H90.25C89.5597 92.2625 89 91.7028 89 91.0125V91ZM85.25 89.75C84.5597 89.75 84 90.3097 84 91V91.0125C84 91.7028 84.5597 92.2625 85.25 92.2625H85.2625C85.9528 92.2625 86.5125 91.7028 86.5125 91.0125V91C86.5125 90.3097 85.9528 89.75 85.2625 89.75H85.25Z" fill="#0F172A"/>
<path d="M165.171 77.3289C163.399 75.557 160.527 75.557 158.755 77.3289L156.755 79.3289L163.171 85.7452L165.171 83.7452C166.943 81.9734 166.943 79.1007 165.171 77.3289Z" fill="#0F172A"/>
<path d="M161.338 87.5786L154.921 81.1622L140.402 95.6822C139.336 96.7483 138.552 98.0631 138.121 99.508L136.739 104.149C136.603 104.605 136.728 105.099 137.065 105.435C137.401 105.772 137.895 105.897 138.352 105.761L142.992 104.379C144.437 103.948 145.752 103.165 146.818 102.099L161.338 87.5786Z" fill="#0F172A"/>
<path d="M136.685 82.4814C133.821 82.4814 131.5 84.8029 131.5 87.6666V105.815C131.5 108.678 133.821 111 136.685 111H154.833C157.697 111 160.019 108.678 160.019 105.815V96.7407C160.019 96.0248 159.438 95.4444 158.722 95.4444C158.006 95.4444 157.426 96.0248 157.426 96.7407V105.815C157.426 107.247 156.265 108.407 154.833 108.407H136.685C135.253 108.407 134.093 107.247 134.093 105.815V87.6666C134.093 86.2348 135.253 85.074 136.685 85.074H145.759C146.475 85.074 147.056 84.4937 147.056 83.7777C147.056 83.0618 146.475 82.4814 145.759 82.4814H136.685Z" fill="#0F172A"/>
<path fill-rule="evenodd" clip-rule="evenodd" d="M201.5 93.5C201.5 83.835 209.335 76 219 76C228.665 76 236.5 83.835 236.5 93.5C236.5 103.165 228.665 111 219 111C209.335 111 201.5 103.165 201.5 93.5ZM226.672 91.7349C228.056 92.5042 228.056 94.4958 226.672 95.2653L216.615 100.852C215.269 101.6 213.615 100.627 213.615 99.0869V87.9132C213.615 86.3736 215.269 85.4004 216.615 86.1481L226.672 91.7349Z" fill="#0F172A"/>
</g>
<defs>
<filter id="filter0_d_805_219" x="0" y="0" width="300" height="160" filterUnits="userSpaceOnUse" color-interpolation-filters="sRGB">
<feFlood flood-opacity="0" result="BackgroundImageFix"/>
<feColorMatrix in="SourceAlpha" type="matrix" values="0 0 0 0 0 0 0 0 0 0 0 0 0 0 0 0 0 0 127 0" result="hardAlpha"/>
<feMorphology radius="2" operator="erode" in="SourceAlpha" result="effect1_dropShadow_805_219"/>
<feOffset dy="4"/>
<feGaussianBlur stdDeviation="6"/>
<feComposite in2="hardAlpha" operator="out"/>
<feColorMatrix type="matrix" values="0 0 0 0 0.258824 0 0 0 0 0.301961 0 0 0 0 0.462745 0 0 0 1 0"/>
<feBlend mode="normal" in2="BackgroundImageFix" result="effect1_dropShadow_805_219"/>
<feBlend mode="normal" in="SourceGraphic" in2="effect1_dropShadow_805_219" result="shape"/>
</filter>
</defs>
</svg>
