<svg width="300" height="160" viewBox="0 0 300 160" fill="none" xmlns="http://www.w3.org/2000/svg">
<g filter="url(#filter0_d_805_227)">
<rect x="10" y="6" width="280" height="140" rx="12" fill="white"/>
<rect x="10.5" y="6.5" width="279" height="139" rx="11.5" stroke="#3F4D79"/>
<path d="M10 18C10 11.3726 15.3726 6 22 6H278C284.627 6 290 11.3726 290 18V39H10V18Z" fill="#424D76"/>
<path d="M134.425 16.5188V28H131.998V16.5188H134.425ZM140.268 28.1682C139.386 28.1682 138.628 27.9813 137.992 27.6076C137.361 27.2301 136.875 26.7069 136.535 26.0379C136.198 25.3689 136.03 24.599 136.03 23.7282C136.03 22.8462 136.2 22.0725 136.54 21.4073C136.884 20.7383 137.372 20.2169 138.003 19.8432C138.635 19.4657 139.386 19.277 140.257 19.277C141.008 19.277 141.666 19.4134 142.23 19.6862C142.795 19.959 143.241 20.3421 143.57 20.8355C143.899 21.3288 144.08 21.9081 144.114 22.5733H141.86C141.797 22.1435 141.629 21.7978 141.356 21.5362C141.087 21.2709 140.734 21.1382 140.296 21.1382C139.926 21.1382 139.603 21.2391 139.326 21.4409C139.054 21.639 138.841 21.9286 138.687 22.3098C138.534 22.6911 138.457 23.1526 138.457 23.6945C138.457 24.2439 138.532 24.7111 138.682 25.0961C138.835 25.481 139.05 25.7744 139.326 25.9762C139.603 26.178 139.926 26.2789 140.296 26.2789C140.569 26.2789 140.814 26.2229 141.031 26.1108C141.251 25.9986 141.432 25.8361 141.574 25.623C141.72 25.4063 141.815 25.1465 141.86 24.8438H144.114C144.077 25.5016 143.897 26.0809 143.576 26.5817C143.258 27.0787 142.819 27.4674 142.258 27.7477C141.698 28.028 141.034 28.1682 140.268 28.1682ZM149.534 28.1682C148.663 28.1682 147.91 27.9832 147.274 27.6132C146.643 27.2394 146.155 26.7199 145.811 26.0547C145.467 25.3857 145.295 24.6102 145.295 23.7282C145.295 22.8387 145.467 22.0613 145.811 21.3961C146.155 20.7271 146.643 20.2076 147.274 19.8376C147.91 19.4638 148.663 19.277 149.534 19.277C150.404 19.277 151.156 19.4638 151.787 19.8376C152.423 20.2076 152.912 20.7271 153.256 21.3961C153.6 22.0613 153.772 22.8387 153.772 23.7282C153.772 24.6102 153.6 25.3857 153.256 26.0547C152.912 26.7199 152.423 27.2394 151.787 27.6132C151.156 27.9832 150.404 28.1682 149.534 28.1682ZM149.545 26.3182C149.941 26.3182 150.272 26.2061 150.537 25.9818C150.802 25.7538 151.002 25.4436 151.137 25.0512C151.275 24.6588 151.344 24.2122 151.344 23.7114C151.344 23.2106 151.275 22.7639 151.137 22.3715C151.002 21.9791 150.802 21.6689 150.537 21.4409C150.272 21.2129 149.941 21.0989 149.545 21.0989C149.145 21.0989 148.809 21.2129 148.536 21.4409C148.267 21.6689 148.063 21.9791 147.925 22.3715C147.79 22.7639 147.723 23.2106 147.723 23.7114C147.723 24.2122 147.79 24.6588 147.925 25.0512C148.063 25.4436 148.267 25.7538 148.536 25.9818C148.809 26.2061 149.145 26.3182 149.545 26.3182ZM157.713 23.0218V28H155.325V19.3891H157.601V20.9083H157.702C157.892 20.4075 158.212 20.0114 158.66 19.7198C159.109 19.4246 159.653 19.277 160.292 19.277C160.89 19.277 161.411 19.4078 161.856 19.6694C162.301 19.931 162.646 20.3047 162.893 20.7906C163.14 21.2727 163.263 21.8483 163.263 22.5173V28H160.875V22.9433C160.878 22.4164 160.744 22.0053 160.471 21.71C160.198 21.411 159.823 21.2615 159.344 21.2615C159.023 21.2615 158.739 21.3307 158.492 21.4689C158.249 21.6072 158.059 21.809 157.92 22.0744C157.786 22.336 157.717 22.6518 157.713 23.0218ZM172.31 21.8445L170.123 21.9791C170.086 21.7922 170.006 21.624 169.882 21.4745C169.759 21.3213 169.596 21.1998 169.395 21.1102C169.196 21.0167 168.959 20.97 168.683 20.97C168.313 20.97 168 21.0485 167.746 21.2055C167.492 21.3587 167.365 21.5642 167.365 21.8221C167.365 22.0277 167.447 22.2015 167.612 22.3435C167.776 22.4855 168.058 22.5995 168.458 22.6855L170.017 22.9994C170.854 23.1713 171.478 23.4479 171.889 23.8291C172.3 24.2103 172.506 24.7111 172.506 25.3315C172.506 25.8959 172.34 26.3911 172.007 26.8171C171.678 27.2432 171.226 27.5758 170.65 27.815C170.078 28.0505 169.419 28.1682 168.671 28.1682C167.531 28.1682 166.623 27.9309 165.947 27.4562C165.274 26.9778 164.88 26.3275 164.764 25.5053L167.113 25.382C167.184 25.7295 167.356 25.9949 167.629 26.178C167.901 26.3574 168.251 26.4471 168.677 26.4471C169.096 26.4471 169.432 26.3668 169.686 26.2061C169.944 26.0416 170.075 25.8305 170.078 25.5726C170.075 25.3558 169.983 25.1783 169.804 25.04C169.624 24.898 169.348 24.7896 168.974 24.7148L167.483 24.4177C166.642 24.2495 166.016 23.958 165.605 23.5432C165.197 23.1283 164.994 22.5995 164.994 21.9567C164.994 21.4035 165.143 20.927 165.442 20.5271C165.745 20.1272 166.169 19.8189 166.715 19.6021C167.264 19.3854 167.907 19.277 168.643 19.277C169.731 19.277 170.587 19.5068 171.211 19.9665C171.839 20.4262 172.205 21.0522 172.31 21.8445ZM176.465 28.1626C175.916 28.1626 175.426 28.0673 174.996 27.8767C174.567 27.6823 174.226 27.3964 173.976 27.0189C173.729 26.6377 173.606 26.1631 173.606 25.595C173.606 25.1166 173.694 24.7148 173.87 24.3897C174.045 24.0645 174.284 23.8029 174.587 23.6048C174.89 23.4068 175.234 23.2573 175.619 23.1564C176.007 23.0555 176.415 22.9844 176.841 22.9433C177.342 22.891 177.745 22.8424 178.052 22.7976C178.358 22.749 178.581 22.678 178.719 22.5845C178.857 22.4911 178.926 22.3528 178.926 22.1697V22.1361C178.926 21.781 178.814 21.5063 178.59 21.312C178.369 21.1176 178.055 21.0205 177.648 21.0205C177.218 21.0205 176.876 21.1158 176.622 21.3064C176.368 21.4932 176.2 21.7287 176.118 22.0127L173.909 21.8333C174.021 21.3101 174.241 20.8579 174.57 20.4767C174.899 20.0917 175.323 19.7965 175.843 19.5909C176.366 19.3816 176.972 19.277 177.659 19.277C178.138 19.277 178.595 19.333 179.033 19.4452C179.474 19.5573 179.864 19.7311 180.204 19.9665C180.548 20.202 180.819 20.5047 181.017 20.8747C181.215 21.241 181.314 21.6801 181.314 22.1921V28H179.05V26.8059H178.982C178.844 27.075 178.659 27.3123 178.427 27.5179C178.196 27.7197 177.917 27.8785 177.592 27.9944C177.267 28.1065 176.891 28.1626 176.465 28.1626ZM177.149 26.5144C177.5 26.5144 177.811 26.4453 178.08 26.307C178.349 26.1649 178.56 25.9743 178.713 25.7352C178.866 25.496 178.943 25.225 178.943 24.9223V24.0085C178.868 24.0571 178.766 24.1019 178.635 24.143C178.508 24.1804 178.364 24.2159 178.203 24.2495C178.042 24.2794 177.882 24.3075 177.721 24.3336C177.56 24.3561 177.414 24.3766 177.284 24.3953C177.003 24.4364 176.759 24.5018 176.549 24.5915C176.34 24.6812 176.177 24.8027 176.062 24.9559C175.946 25.1054 175.888 25.2923 175.888 25.5165C175.888 25.8417 176.005 26.0902 176.241 26.2621C176.48 26.4303 176.783 26.5144 177.149 26.5144ZM185.163 19.3891L186.744 22.3995L188.364 19.3891H190.814L188.319 23.6945L190.881 28H188.442L186.744 25.0232L185.073 28H182.607L185.163 23.6945L182.696 19.3891H185.163Z" fill="white"/>
<g clip-path="url(#clip0_805_227)">
<path d="M126.716 13.6355H123.267L117.362 22.7972L111.457 13.6355H108.007L117.362 28.1482L126.716 13.6355Z" fill="white"/>
<path d="M117.362 29.7626L109.442 17.4757H108L117.361 31.9999L126.723 17.4757H125.281L117.362 29.7626Z" fill="white"/>
<path d="M122.271 12.2791L117.361 19.7577L112.452 12.2791L116.065 13.1924V12H118.658V13.1924L122.271 12.2791Z" fill="white"/>
</g>
<path d="M159.806 95.2495V96.9994H158.283C156.988 96.9994 155.938 98.0494 155.938 99.3619V99.8869C155.938 101.199 154.888 102.249 153.576 102.249C152.281 102.249 151.231 101.199 151.231 99.8869V99.3619C151.231 98.0494 150.163 96.9994 148.868 96.9994C147.574 96.9994 146.524 98.0494 146.524 99.3619V99.8869C146.524 101.199 145.456 102.249 144.161 102.249C142.866 102.249 141.799 101.199 141.799 99.8869V99.3619C141.799 98.0494 140.749 96.9994 139.454 96.9994C138.159 96.9994 137.091 98.0494 137.091 99.3619V99.8869C137.091 101.199 136.041 102.249 134.746 102.249C133.434 102.249 132.384 101.199 132.384 99.8869V99.3269C132.384 98.0319 131.351 96.9819 130.074 96.9644H128.691V95.2495C128.691 92.8346 130.511 90.7871 132.979 90.1921C133.469 90.0696 133.976 89.9996 134.519 89.9996H153.978C154.521 89.9996 155.028 90.0696 155.518 90.1921C157.986 90.7871 159.806 92.8346 159.806 95.2495Z" fill="#292D32"/>
<path d="M155.52 85.0473V87.5147C155.013 87.4097 154.505 87.3747 153.98 87.3747H134.521C133.996 87.3747 133.488 87.4272 132.981 87.5322V85.0473C132.981 82.9473 134.871 81.2499 137.216 81.2499H151.285C153.63 81.2499 155.52 82.9473 155.52 85.0473Z" fill="#292D32"/>
<path d="M138.562 78.7097V81.2646H137.215C136.76 81.2646 136.34 81.3171 135.937 81.4221V78.7097C135.937 78.0972 136.532 77.5722 137.25 77.5722C137.967 77.5722 138.562 78.0972 138.562 78.7097Z" fill="#292D32"/>
<path d="M152.562 78.3242V81.4216C152.159 81.2991 151.739 81.2466 151.284 81.2466H149.937V78.3242C149.937 77.6067 150.532 77.0117 151.249 77.0117C151.967 77.0117 152.562 77.6067 152.562 78.3242Z" fill="#292D32"/>
<path d="M145.562 77.435V81.2499H142.937V77.435C142.937 76.6475 143.532 76 144.25 76C144.967 76 145.562 76.6475 145.562 77.435Z" fill="#292D32"/>
<path d="M161.749 109.688C161.749 110.405 161.154 111 160.437 111H128.063C127.345 111 126.75 110.405 126.75 109.688C126.75 108.97 127.345 108.375 128.063 108.375H128.693V99.5903H129.76V99.7128C129.76 102.058 131.3 104.228 133.592 104.735C135.377 105.155 137.075 104.578 138.23 103.44C138.895 102.775 139.98 102.758 140.645 103.423C141.555 104.315 142.797 104.875 144.162 104.875C145.527 104.875 146.77 104.333 147.68 103.423C148.345 102.775 149.412 102.775 150.095 103.44C151.232 104.578 152.929 105.155 154.732 104.735C157.024 104.228 158.564 102.058 158.564 99.7128V99.6253H159.807V108.375H160.437C161.154 108.375 161.749 108.97 161.749 109.688Z" fill="#292D32"/>
<path opacity="0.4" d="M69 93.5001C69 87.2176 74.0925 82.1251 80.3751 82.1251C86.6576 82.1251 91.7501 87.2176 91.7501 93.5001C91.7501 97.1401 90.0351 100.395 87.3751 102.478H87.3576C85.4326 103.983 83.0176 104.875 80.3751 104.875C77.7676 104.875 75.37 104 73.445 102.513H73.4275C70.7325 100.43 69 97.1751 69 93.5001Z" fill="#292D32"/>
<path d="M73.4263 102.512H73.4438C75.3688 104 77.7663 104.875 80.3738 104.875C83.0164 104.875 85.4314 103.982 87.3564 102.477H87.3739L86.4814 106.8C85.6239 110.125 83.6989 111 81.3363 111H79.4288C77.0663 111 75.1238 110.125 74.2838 106.783L73.4263 102.512Z" fill="#292D32"/>
<path d="M73.4263 84.4875H73.4438C75.3688 83 77.7663 82.125 80.3738 82.125C83.0164 82.125 85.4314 83.0175 87.3564 84.5225H87.3739L86.4814 80.2C85.6239 76.875 83.6989 76 81.3363 76H79.4288C77.0663 76 75.1238 76.875 74.2838 80.2175L73.4263 84.4875Z" fill="#292D32"/>
<path d="M82.8251 98.0499C82.4926 98.0499 82.1601 97.9274 81.8976 97.6649L79.4476 95.2149C79.2026 94.9699 79.0626 94.6374 79.0626 94.2874V89.4049C79.0626 88.6874 79.6576 88.0924 80.3751 88.0924C81.0926 88.0924 81.6876 88.6874 81.6876 89.4049V93.7449L83.7526 95.8099C84.2601 96.3174 84.2601 97.1574 83.7526 97.6649C83.4901 97.9274 83.1576 98.0499 82.8251 98.0499Z" fill="#292D32"/>
<path d="M216.529 102.323H212.443C209.773 102.323 207.608 100.077 207.608 97.3095C207.608 96.642 208.161 96.0885 208.829 96.0885C209.496 96.0885 210.049 96.642 210.049 97.3095C210.049 98.7258 211.124 99.8816 212.443 99.8816H216.529C217.587 99.8816 218.466 98.9374 218.466 97.7978C218.466 96.3816 217.961 96.1048 217.131 95.8118L210.57 93.5002C209.301 93.0606 207.591 92.1164 207.591 89.2025C207.591 86.6955 209.561 84.6769 211.97 84.6769H216.056C218.726 84.6769 220.891 86.9234 220.891 89.6908C220.891 90.3583 220.338 90.9118 219.67 90.9118C219.003 90.9118 218.45 90.3583 218.45 89.6908C218.45 88.2746 217.375 87.1187 216.056 87.1187H211.97C210.912 87.1187 210.033 88.0629 210.033 89.2025C210.033 90.6188 210.538 90.8955 211.368 91.1885L217.929 93.5002C219.198 93.9397 220.908 94.8839 220.908 97.7978C220.891 100.289 218.938 102.323 216.529 102.323Z" fill="#292D32"/>
<path d="M214.249 104.488C213.582 104.488 213.028 103.935 213.028 103.267V83.7326C213.028 83.0651 213.582 82.5117 214.249 82.5117C214.917 82.5117 215.47 83.0651 215.47 83.7326V103.267C215.47 103.935 214.917 104.488 214.249 104.488Z" fill="#292D32"/>
<path d="M214.249 111C204.596 111 196.749 103.153 196.749 93.5C196.749 83.8465 204.596 76 214.249 76C223.903 76 231.749 83.8465 231.749 93.5C231.749 103.153 223.903 111 214.249 111ZM214.249 78.4419C205.947 78.4419 199.191 85.1977 199.191 93.5C199.191 101.802 205.947 108.558 214.249 108.558C222.552 108.558 229.307 101.802 229.307 93.5C229.307 85.1977 222.552 78.4419 214.249 78.4419Z" fill="#292D32"/>
</g>
<defs>
<filter id="filter0_d_805_227" x="0" y="0" width="300" height="160" filterUnits="userSpaceOnUse" color-interpolation-filters="sRGB">
<feFlood flood-opacity="0" result="BackgroundImageFix"/>
<feColorMatrix in="SourceAlpha" type="matrix" values="0 0 0 0 0 0 0 0 0 0 0 0 0 0 0 0 0 0 127 0" result="hardAlpha"/>
<feMorphology radius="2" operator="erode" in="SourceAlpha" result="effect1_dropShadow_805_227"/>
<feOffset dy="4"/>
<feGaussianBlur stdDeviation="6"/>
<feComposite in2="hardAlpha" operator="out"/>
<feColorMatrix type="matrix" values="0 0 0 0 0.258824 0 0 0 0 0.301961 0 0 0 0 0.462745 0 0 0 1 0"/>
<feBlend mode="normal" in2="BackgroundImageFix" result="effect1_dropShadow_805_227"/>
<feBlend mode="normal" in="SourceGraphic" in2="effect1_dropShadow_805_227" result="shape"/>
</filter>
<clipPath id="clip0_805_227">
<rect width="18.7234" height="20" fill="white" transform="translate(108 12)"/>
</clipPath>
</defs>
</svg>
