<svg width="300" height="160" viewBox="0 0 300 160" fill="none" xmlns="http://www.w3.org/2000/svg">
<g filter="url(#filter0_d_805_241)">
<rect x="10" y="6" width="280" height="140" rx="12" fill="white"/>
<rect x="10.5" y="6.5" width="279" height="139" rx="11.5" stroke="#3F4D79"/>
<path d="M10 18C10 11.3726 15.3726 6 22 6H278C284.627 6 290 11.3726 290 18V39H10V18Z" fill="#424D76"/>
<path d="M133.425 15.5188V27H130.998V15.5188H133.425ZM139.268 27.1682C138.397 27.1682 137.644 26.9832 137.009 26.6132C136.377 26.2394 135.89 25.7199 135.546 25.0547C135.202 24.3857 135.03 23.6102 135.03 22.7282C135.03 21.8387 135.202 21.0613 135.546 20.3961C135.89 19.7271 136.377 19.2076 137.009 18.8376C137.644 18.4638 138.397 18.277 139.268 18.277C140.139 18.277 140.89 18.4638 141.522 18.8376C142.157 19.2076 142.647 19.7271 142.991 20.3961C143.334 21.0613 143.506 21.8387 143.506 22.7282C143.506 23.6102 143.334 24.3857 142.991 25.0547C142.647 25.7199 142.157 26.2394 141.522 26.6132C140.89 26.9832 140.139 27.1682 139.268 27.1682ZM139.279 25.3182C139.676 25.3182 140.006 25.2061 140.272 24.9818C140.537 24.7538 140.737 24.4436 140.872 24.0512C141.01 23.6588 141.079 23.2122 141.079 22.7114C141.079 22.2106 141.01 21.7639 140.872 21.3715C140.737 20.9791 140.537 20.6689 140.272 20.4409C140.006 20.2129 139.676 20.0989 139.279 20.0989C138.88 20.0989 138.543 20.2129 138.27 20.4409C138.001 20.6689 137.798 20.9791 137.659 21.3715C137.525 21.7639 137.457 22.2106 137.457 22.7114C137.457 23.2122 137.525 23.6588 137.659 24.0512C137.798 24.4436 138.001 24.7538 138.27 24.9818C138.543 25.2061 138.88 25.3182 139.279 25.3182ZM147.447 22.0218V27H145.059V18.3891H147.335V19.9083H147.436C147.627 19.4075 147.946 19.0114 148.395 18.7198C148.843 18.4246 149.387 18.277 150.026 18.277C150.624 18.277 151.146 18.4078 151.59 18.6694C152.035 18.931 152.381 19.3047 152.627 19.7906C152.874 20.2727 152.997 20.8483 152.997 21.5173V27H150.609V21.9433C150.613 21.4164 150.478 21.0053 150.206 20.71C149.933 20.411 149.557 20.2615 149.079 20.2615C148.757 20.2615 148.473 20.3307 148.227 20.4689C147.984 20.6072 147.793 20.809 147.655 21.0744C147.52 21.336 147.451 21.6518 147.447 22.0218ZM157.352 15.5188V27H154.925V15.5188H157.352ZM163.195 27.1682C162.313 27.1682 161.554 26.9813 160.919 26.6076C160.287 26.2301 159.801 25.7069 159.461 25.0379C159.125 24.3689 158.957 23.599 158.957 22.7282C158.957 21.8462 159.127 21.0725 159.467 20.4073C159.811 19.7383 160.298 19.2169 160.93 18.8432C161.562 18.4657 162.313 18.277 163.184 18.277C163.935 18.277 164.593 18.4134 165.157 18.6862C165.721 18.959 166.168 19.3421 166.497 19.8355C166.826 20.3288 167.007 20.9081 167.041 21.5733H164.787C164.723 21.1435 164.555 20.7978 164.282 20.5362C164.013 20.2709 163.66 20.1382 163.223 20.1382C162.853 20.1382 162.53 20.2391 162.253 20.4409C161.98 20.639 161.767 20.9286 161.614 21.3098C161.461 21.6911 161.384 22.1526 161.384 22.6945C161.384 23.2439 161.459 23.7111 161.608 24.0961C161.762 24.481 161.977 24.7744 162.253 24.9762C162.53 25.178 162.853 25.2789 163.223 25.2789C163.496 25.2789 163.741 25.2229 163.957 25.1108C164.178 24.9986 164.359 24.8361 164.501 24.623C164.647 24.4063 164.742 24.1465 164.787 23.8438H167.041C167.003 24.5016 166.824 25.0809 166.502 25.5817C166.185 26.0787 165.746 26.4674 165.185 26.7477C164.624 27.028 163.961 27.1682 163.195 27.1682ZM172.46 27.1682C171.589 27.1682 170.836 26.9832 170.201 26.6132C169.569 26.2394 169.082 25.7199 168.738 25.0547C168.394 24.3857 168.222 23.6102 168.222 22.7282C168.222 21.8387 168.394 21.0613 168.738 20.3961C169.082 19.7271 169.569 19.2076 170.201 18.8376C170.836 18.4638 171.589 18.277 172.46 18.277C173.331 18.277 174.082 18.4638 174.714 18.8376C175.349 19.2076 175.839 19.7271 176.183 20.3961C176.527 21.0613 176.698 21.8387 176.698 22.7282C176.698 23.6102 176.527 24.3857 176.183 25.0547C175.839 25.7199 175.349 26.2394 174.714 26.6132C174.082 26.9832 173.331 27.1682 172.46 27.1682ZM172.472 25.3182C172.868 25.3182 173.198 25.2061 173.464 24.9818C173.729 24.7538 173.929 24.4436 174.064 24.0512C174.202 23.6588 174.271 23.2122 174.271 22.7114C174.271 22.2106 174.202 21.7639 174.064 21.3715C173.929 20.9791 173.729 20.6689 173.464 20.4409C173.198 20.2129 172.868 20.0989 172.472 20.0989C172.072 20.0989 171.735 20.2129 171.462 20.4409C171.193 20.6689 170.99 20.9791 170.851 21.3715C170.717 21.7639 170.65 22.2106 170.65 22.7114C170.65 23.2122 170.717 23.6588 170.851 24.0512C170.99 24.4436 171.193 24.7538 171.462 24.9818C171.735 25.2061 172.072 25.3182 172.472 25.3182ZM180.64 22.0218V27H178.251V18.3891H180.527V19.9083H180.628C180.819 19.4075 181.138 19.0114 181.587 18.7198C182.035 18.4246 182.579 18.277 183.218 18.277C183.816 18.277 184.338 18.4078 184.782 18.6694C185.227 18.931 185.573 19.3047 185.82 19.7906C186.066 20.2727 186.19 20.8483 186.19 21.5173V27H183.801V21.9433C183.805 21.4164 183.671 21.0053 183.398 20.71C183.125 20.411 182.749 20.2615 182.271 20.2615C181.949 20.2615 181.665 20.3307 181.419 20.4689C181.176 20.6072 180.985 20.809 180.847 21.0744C180.712 21.336 180.643 21.6518 180.64 22.0218ZM195.236 20.8445L193.05 20.9791C193.013 20.7922 192.932 20.624 192.809 20.4745C192.686 20.3213 192.523 20.1998 192.321 20.1102C192.123 20.0167 191.886 19.97 191.609 19.97C191.239 19.97 190.927 20.0485 190.673 20.2055C190.419 20.3587 190.292 20.5642 190.292 20.8221C190.292 21.0277 190.374 21.2015 190.538 21.3435C190.703 21.4855 190.985 21.5995 191.385 21.6855L192.943 21.9994C193.781 22.1713 194.405 22.4479 194.816 22.8291C195.227 23.2103 195.433 23.7111 195.433 24.3315C195.433 24.8959 195.266 25.3911 194.934 25.8171C194.605 26.2432 194.152 26.5758 193.577 26.815C193.005 27.0505 192.345 27.1682 191.598 27.1682C190.458 27.1682 189.55 26.9309 188.873 26.4562C188.201 25.9778 187.806 25.3275 187.691 24.5053L190.04 24.382C190.111 24.7295 190.282 24.9949 190.555 25.178C190.828 25.3574 191.178 25.4471 191.604 25.4471C192.022 25.4471 192.359 25.3668 192.613 25.2061C192.871 25.0416 193.001 24.8305 193.005 24.5726C193.001 24.3558 192.91 24.1783 192.73 24.04C192.551 23.898 192.274 23.7896 191.901 23.7148L190.41 23.4177C189.569 23.2495 188.943 22.958 188.531 22.5432C188.124 22.1283 187.92 21.5995 187.92 20.9567C187.92 20.4035 188.07 19.927 188.369 19.5271C188.672 19.1272 189.096 18.8189 189.641 18.6021C190.191 18.3854 190.834 18.277 191.57 18.277C192.658 18.277 193.513 18.5068 194.138 18.9665C194.765 19.4262 195.132 20.0522 195.236 20.8445Z" fill="white"/>
<path d="M115 13.4355C110.27 13.4355 106.435 17.2699 106.435 22C106.435 26.7301 110.27 30.5645 115 30.5645C119.73 30.5645 123.565 26.7301 123.565 22C123.565 21.5424 123.529 21.0936 123.46 20.6559L124.375 20.456C124.457 20.9588 124.5 21.4746 124.5 22C124.5 27.2467 120.247 31.5 115 31.5C109.753 31.5 105.5 27.2467 105.5 22C105.5 16.7533 109.753 12.5 115 12.5C117.145 12.5 119.126 13.2117 120.716 14.4114L120.113 15.1288C118.686 14.0649 116.917 13.4355 115 13.4355Z" fill="#3880FF" stroke="#0CADFF"/>
<path d="M120.305 15.2524C120.305 15.2523 120.307 15.2521 120.313 15.2522C120.308 15.2526 120.305 15.2525 120.305 15.2524ZM120.637 17.5682C121.002 17.9565 121.521 18.1989 122.097 18.1989C123.204 18.1989 124.102 17.3011 124.102 16.1936C124.102 15.8551 124.018 15.5362 123.87 15.2566C123.888 15.2542 123.905 15.2519 123.922 15.2495C123.963 15.2439 124.003 15.2384 124.043 15.2329C124.545 15.1639 124.948 15.1086 125.284 15.113C125.642 15.1178 125.807 15.1919 125.897 15.2861C125.994 15.3862 126.113 15.62 126.113 16.1936C126.113 18.4116 124.315 20.2097 122.097 20.2097C121.52 20.2097 121.201 20.1095 121.019 19.9888C120.855 19.88 120.747 19.7169 120.681 19.4345C120.611 19.1347 120.599 18.7457 120.613 18.2368C120.617 18.0753 120.624 17.9004 120.631 17.7156C120.633 17.6671 120.635 17.618 120.637 17.5682Z" fill="white" stroke="#0CADFF"/>
<path d="M122.097 14.7258C121.286 14.7258 120.629 15.3829 120.629 16.1935C120.629 17.0041 121.286 17.6613 122.097 17.6613C122.907 17.6613 123.565 17.0041 123.565 16.1935C123.565 15.3829 122.907 14.7258 122.097 14.7258ZM119.694 16.1935C119.694 14.8662 120.77 13.7903 122.097 13.7903C123.424 13.7903 124.5 14.8662 124.5 16.1935C124.5 17.5208 123.424 18.5967 122.097 18.5967C120.77 18.5967 119.694 17.5208 119.694 16.1935Z" fill="#194BFD" stroke="#0CADFF"/>
<path d="M115 25.871C117.138 25.871 118.871 24.1379 118.871 22C118.871 19.8621 117.138 18.129 115 18.129C112.862 18.129 111.129 19.8621 111.129 22C111.129 24.1379 112.862 25.871 115 25.871Z" stroke="#0CADFF" stroke-width="3"/>
<path d="M160.603 82.344C160.185 82.2012 159.764 82.0681 159.339 81.9449C159.41 81.6587 159.475 81.3709 159.534 81.0814C160.491 76.4284 159.865 72.6798 157.73 71.4458C155.686 70.2617 152.333 71.4957 148.951 74.4461C148.618 74.7372 148.292 75.0371 147.973 75.3456C147.761 75.1407 147.543 74.94 147.319 74.7438C143.774 71.5889 140.221 70.26 138.088 71.4981C136.044 72.6847 135.436 76.2084 136.298 80.6185C136.384 81.0547 136.48 81.4889 136.588 81.9212C136.085 82.0643 135.599 82.2172 135.135 82.3792C130.984 83.8307 128.329 86.1065 128.329 88.4665C128.329 90.9051 131.178 93.3502 135.507 94.8327C135.858 94.9521 136.212 95.0631 136.57 95.1656C136.454 95.6284 136.351 96.0964 136.262 96.5697C135.444 100.904 136.082 104.344 138.122 105.523C140.229 106.741 143.764 105.49 147.21 102.472C147.483 102.233 147.756 101.981 148.028 101.716C148.373 102.049 148.727 102.372 149.091 102.686C152.428 105.563 155.722 106.725 157.759 105.542C159.865 104.32 160.55 100.624 159.661 96.1272C159.593 95.7838 159.514 95.4332 159.425 95.0756C159.674 95.002 159.917 94.926 160.155 94.8475C164.653 93.3534 167.583 90.9378 167.583 88.469C167.582 86.0975 164.842 83.807 160.603 82.344ZM150.054 75.7136C152.951 73.186 155.659 72.1883 156.894 72.9014C158.208 73.6611 158.72 76.7244 157.894 80.742C157.839 81.0037 157.78 81.2646 157.717 81.5246C155.988 81.1313 154.235 80.8538 152.469 80.6938C151.457 79.2372 150.349 77.8507 149.151 76.5437C149.444 76.2591 149.745 75.9824 150.052 75.7136H150.054ZM139.919 90.4831C140.274 91.17 140.645 91.8485 141.032 92.5185C141.426 93.2021 141.837 93.8757 142.265 94.5392C141.05 94.4071 139.842 94.2124 138.647 93.9561C138.994 92.8341 139.421 91.6688 139.919 90.4831ZM139.919 86.5309C139.429 85.3705 139.013 84.2289 138.672 83.1266C139.793 82.8755 140.987 82.6703 142.231 82.5149C141.814 83.1658 141.413 83.8263 141.027 84.4963C140.642 85.1663 140.272 85.8445 139.917 86.5309H139.919ZM140.811 88.5074C141.328 87.4296 141.884 86.3725 142.481 85.3362C143.076 84.3003 143.711 83.2882 144.383 82.2998C145.551 82.2115 146.748 82.1649 147.958 82.1649C149.167 82.1649 150.372 82.2115 151.539 82.3006C152.204 83.2869 152.835 84.2954 153.43 85.3263C154.026 86.3573 154.59 87.4094 155.122 88.4829C154.597 89.5645 154.034 90.6259 153.434 91.6672C152.84 92.703 152.213 93.7181 151.554 94.7125C150.388 94.7943 149.182 94.8393 147.955 94.8393C146.729 94.8393 145.545 94.8008 144.401 94.7264C143.724 93.7348 143.084 92.7183 142.483 91.677C141.882 90.6357 141.323 89.5792 140.808 88.5074H140.811ZM154.886 92.507C155.281 91.8212 155.661 91.1264 156.024 90.4226C156.523 91.5528 156.963 92.7079 157.342 93.8833C156.133 94.1556 154.911 94.3644 153.68 94.5089C154.095 93.8498 154.497 93.1825 154.886 92.507ZM156.008 86.5317C155.646 85.8421 155.269 85.1606 154.879 84.4873C154.497 83.8233 154.099 83.1675 153.685 82.5198C154.937 82.6784 156.139 82.8894 157.265 83.147C156.903 84.2956 156.483 85.4252 156.008 86.5317ZM147.974 77.7449C148.791 78.6372 149.562 79.5701 150.284 80.54C148.739 80.4664 147.192 80.4664 145.644 80.54C146.407 79.5309 147.188 78.5946 147.974 77.7449ZM138.932 72.9513C140.246 72.1891 143.149 73.2784 146.21 75.999C146.406 76.1732 146.603 76.3556 146.799 76.5445C145.595 77.8513 144.479 79.2367 143.458 80.6913C141.696 80.8501 139.946 81.1232 138.219 81.5091C138.119 81.1078 138.03 80.7038 137.949 80.2971C137.209 76.5167 137.699 73.6668 138.932 72.9513ZM137.018 93.5464C136.691 93.4532 136.368 93.3521 136.049 93.243C134.135 92.5888 132.555 91.7351 131.469 90.8053C130.498 89.972 130.006 89.1403 130.006 88.4665C130.006 87.0346 132.137 85.2078 135.691 83.9689C136.137 83.8135 136.588 83.6715 137.042 83.5428C137.569 85.2391 138.209 86.8986 138.955 88.5107C138.2 90.145 137.553 91.8272 137.018 93.5464ZM146.106 101.206C144.582 102.541 143.056 103.487 141.711 103.964C140.502 104.391 139.54 104.404 138.958 104.068C137.72 103.352 137.205 100.589 137.908 96.8829C137.991 96.4467 138.086 96.0106 138.194 95.5744C139.938 95.9501 141.705 96.2067 143.484 96.3423C144.515 97.8045 145.64 99.1977 146.853 100.513C146.609 100.752 146.36 100.983 146.106 101.206ZM148.021 99.3075C147.226 98.448 146.433 97.497 145.659 96.4748C146.411 96.5042 147.176 96.519 147.955 96.519C148.755 96.519 149.547 96.5018 150.327 96.4666C149.607 97.4521 148.837 98.4003 148.021 99.3075ZM158.204 101.645C157.97 102.908 157.499 103.75 156.918 104.087C155.681 104.805 153.035 103.872 150.183 101.412C149.856 101.13 149.529 100.829 149.196 100.512C150.385 99.1918 151.484 97.793 152.486 96.3251C154.274 96.1736 156.05 95.899 157.801 95.5033C157.881 95.8271 157.952 96.1444 158.014 96.4552C158.407 98.4423 158.464 100.24 158.204 101.645ZM159.626 93.252C159.412 93.3232 159.191 93.3919 158.967 93.4589C158.418 91.7547 157.754 90.0897 156.979 88.4755C157.725 86.8829 158.363 85.242 158.89 83.5641C159.291 83.681 159.681 83.8037 160.057 83.9337C163.689 85.1865 165.905 87.0412 165.905 88.4665C165.905 89.9875 163.512 91.9616 159.626 93.252Z" fill="black"/>
<path d="M147.955 91.9796C148.651 91.9818 149.332 91.7775 149.912 91.3925C150.492 91.0075 150.944 90.4592 151.212 89.8168C151.48 89.1745 151.551 88.4671 151.417 87.7843C151.283 87.1014 150.949 86.4738 150.457 85.9809C149.966 85.488 149.34 85.1519 148.657 85.0153C147.975 84.8787 147.267 84.9477 146.624 85.2135C145.981 85.4793 145.431 85.93 145.044 86.5085C144.657 87.087 144.451 87.7673 144.451 88.4632C144.45 88.9243 144.539 89.3811 144.715 89.8074C144.891 90.2337 145.149 90.6212 145.474 90.9478C145.8 91.2743 146.186 91.5335 146.612 91.7106C147.038 91.8876 147.494 91.979 147.955 91.9796Z" fill="black"/>
<path d="M64.1133 83.5625C63.9166 83.5643 63.7229 83.5139 63.5519 83.4166C63.4264 83.3461 63.3163 83.2513 63.228 83.1378C63.1396 83.0242 63.0748 82.8941 63.0374 82.7552C62.9999 82.6163 62.9905 82.4713 63.0097 82.3287C63.0289 82.1861 63.0764 82.0488 63.1494 81.9248C64.5552 79.5783 68.8325 74.1016 78.1658 74.1016C82.2105 74.1016 85.7579 75.164 88.7044 77.2581C91.1296 78.9768 92.4888 80.9222 93.1363 81.8592C93.2184 81.9773 93.2761 82.1106 93.3059 82.2513C93.3357 82.392 93.3371 82.5373 93.3099 82.6786C93.2827 82.8198 93.2275 82.9542 93.1476 83.0738C93.0677 83.1935 92.9647 83.2959 92.8446 83.3751C92.5992 83.5373 92.3002 83.5976 92.0111 83.5432C91.722 83.4887 91.4655 83.3238 91.2959 83.0834C90.1241 81.3983 86.5512 76.2708 78.1658 76.2708C69.9809 76.2708 66.2804 80.9893 65.0751 83.0127C64.9783 83.1817 64.838 83.3217 64.669 83.4184C64.4999 83.515 64.3081 83.5648 64.1133 83.5625Z" fill="black"/>
<path d="M82.8682 105C82.7751 105.001 82.6823 104.991 82.5918 104.969C75.8215 103.292 73.2935 96.5234 73.1907 96.2419L73.1747 96.18C73.1193 95.9845 71.7608 91.3434 73.8462 88.6251C74.8022 87.3855 76.2561 86.7497 78.176 86.7497C79.961 86.7497 81.2487 87.3046 82.1339 88.453C82.8631 89.3907 83.1548 90.5472 83.4369 91.6613C84.0298 93.9815 84.4578 95.2 86.9216 95.3254C88.0037 95.3801 88.7146 94.7471 89.1179 94.2083C90.208 92.739 90.3975 90.3437 89.5758 88.2291C88.5199 85.4999 84.7728 80.3542 78.1658 80.3542C75.3454 80.3542 72.7539 81.2605 70.6758 82.9638C68.9557 84.3748 67.5929 86.3669 66.9367 88.4143C65.7197 92.2264 67.3158 98.2187 67.3311 98.2734C67.3684 98.4129 67.3774 98.5584 67.3575 98.7013C67.3376 98.8443 67.2894 98.9819 67.2155 99.1059C67.1416 99.2299 67.0437 99.3379 66.9274 99.4235C66.8111 99.509 66.6789 99.5705 66.5385 99.6041C66.2549 99.6795 65.9531 99.6409 65.6977 99.4964C65.4422 99.3519 65.2536 99.1131 65.1721 98.8312C65.0992 98.5578 63.3944 92.1666 64.8002 87.761C66.3315 82.9872 71.0572 78.1747 78.168 78.1747C81.4543 78.1747 84.5591 79.2918 87.1506 81.4012C89.1572 83.0419 90.7964 85.2454 91.6539 87.4482C92.744 90.2606 92.4516 93.4172 90.9109 95.4792C89.8842 96.8544 88.4222 97.5734 86.8028 97.4954C82.5838 97.2839 81.8255 94.3388 81.2728 92.1907C80.704 89.9872 80.3402 88.9248 78.168 88.9248C76.9751 88.9248 76.1373 89.2529 75.6159 89.9325C74.905 90.8622 74.8496 92.3154 74.9283 93.3698C74.98 94.1043 75.1046 94.832 75.3002 95.5419C75.4737 95.9794 77.7334 101.521 83.1453 102.862C83.2852 102.895 83.417 102.956 83.5333 103.04C83.6496 103.125 83.7479 103.232 83.8225 103.355C83.8971 103.477 83.9466 103.614 83.968 103.756C83.9895 103.898 83.9824 104.043 83.9474 104.183C83.8813 104.418 83.7401 104.625 83.5452 104.773C83.3504 104.92 83.1126 105 82.8682 105Z" fill="black"/>
<path d="M74.178 104.5C74.0263 104.5 73.876 104.47 73.7362 104.411C73.5964 104.352 73.4699 104.265 73.3643 104.156C70.6547 101.313 69.122 98.1326 68.5452 94.1565V94.1353C68.2215 91.5031 68.6954 87.7763 71.0178 85.214C72.7321 83.3233 75.142 82.3622 78.168 82.3622C81.7467 82.3622 84.5591 84.0262 86.3128 87.1667C87.5852 89.4483 87.8375 91.7218 87.844 91.8151C87.8574 91.959 87.8422 92.1042 87.7994 92.2422C87.7565 92.3802 87.6869 92.5085 87.5944 92.6195C87.502 92.7306 87.3885 92.8224 87.2606 92.8895C87.1326 92.9567 86.9926 92.998 86.8487 93.011C86.5583 93.0425 86.2671 92.9585 86.0381 92.7772C85.809 92.5959 85.6604 92.3318 85.6244 92.0419C85.4324 90.6778 84.9909 89.3606 84.3222 88.1562C82.963 85.758 80.8951 84.5388 78.16 84.5388C75.7975 84.5388 73.949 85.2497 72.6774 86.6534C70.8443 88.6768 70.4899 91.794 70.7415 93.8561C71.2468 97.3721 72.5979 100.169 74.9837 102.669C75.0833 102.772 75.161 102.895 75.2123 103.029C75.2636 103.163 75.2873 103.307 75.2822 103.45C75.277 103.594 75.243 103.735 75.1822 103.865C75.1214 103.995 75.0351 104.112 74.9283 104.208C74.7227 104.394 74.4555 104.498 74.178 104.5Z" fill="black"/>
<path d="M86.6606 101.367C84.2908 101.367 82.2761 100.711 80.6639 99.4065C77.425 96.7968 77.0618 92.5465 77.0458 92.3671C77.023 92.0727 77.1181 91.7813 77.3101 91.5569C77.5022 91.3326 77.7755 91.1938 78.0699 91.1709C78.3643 91.1481 78.6558 91.2432 78.8801 91.4353C79.1044 91.6273 79.2433 91.9006 79.2661 92.195C79.2741 92.2578 79.5979 95.7344 82.0945 97.7367C83.5718 98.9165 85.5464 99.3846 87.9796 99.1112C88.2704 99.0759 88.5634 99.1572 88.7944 99.3373C89.0255 99.5174 89.1758 99.7816 89.2126 100.072C89.2286 100.216 89.2157 100.361 89.1749 100.5C89.1341 100.638 89.0661 100.767 88.9749 100.879C88.8836 100.991 88.771 101.084 88.6436 101.152C88.5162 101.22 88.3765 101.262 88.2326 101.275C87.7108 101.336 87.1859 101.367 86.6606 101.367Z" fill="black"/>
<path d="M88.5331 72.3909C87.6085 71.7894 84.3302 70 78.1658 70C71.6952 70 68.4088 71.9768 67.6819 72.4792C67.6338 72.5086 67.5889 72.5428 67.5477 72.5812C67.5433 72.5855 67.5377 72.588 67.5317 72.5885C67.4156 72.6899 67.3224 72.8148 67.2584 72.955C67.1944 73.0952 67.161 73.2474 67.1605 73.4016C67.1625 73.546 67.193 73.6887 67.2502 73.8213C67.3074 73.954 67.3903 74.074 67.494 74.1746C67.5977 74.2752 67.7202 74.3544 67.8546 74.4075C67.9889 74.4607 68.1324 74.4868 68.2769 74.4844C68.5084 74.4842 68.7343 74.4132 68.9244 74.2809C68.9557 74.2576 71.7841 72.1795 78.168 72.1795C84.5518 72.1795 87.3956 74.2503 87.4262 74.2656C87.6203 74.4096 87.8561 74.4864 88.0978 74.4844C88.2423 74.4866 88.3859 74.4602 88.5203 74.4068C88.6546 74.3534 88.7771 74.274 88.8807 74.1731C88.9843 74.0722 89.067 73.9519 89.1239 73.819C89.1809 73.6861 89.211 73.5432 89.2126 73.3986C89.2127 73.1821 89.148 72.9704 89.027 72.7909C88.9059 72.6113 88.7339 72.472 88.5331 72.3909Z" fill="black"/>
<path d="M236.296 88.7591H231.331V84.9936C231.331 84.7687 231.324 84.5481 231.31 84.332C233.62 82.154 233.83 79.283 233.831 76.2856C233.831 75.6129 233.313 75.0356 232.64 75.0036C232.471 74.9957 232.303 75.022 232.144 75.081C231.986 75.1401 231.842 75.2305 231.719 75.347C231.597 75.4634 231.5 75.6034 231.433 75.7586C231.366 75.9137 231.332 76.0808 231.331 76.2496C231.331 78.437 231.186 80.0111 230.558 81.2368C229.057 78.0222 225.419 76.2442 220.082 76.2442C216.973 76.2442 214.286 76.9574 212.315 78.3058C211.151 79.1018 210.268 80.0955 209.682 81.2525C208.989 80.0502 208.833 78.5151 208.833 76.2856C208.833 75.6129 208.317 75.0356 207.645 75.0013C207.476 74.9928 207.307 75.0188 207.148 75.0777C206.989 75.1366 206.844 75.2272 206.721 75.344C206.599 75.4607 206.501 75.6012 206.434 75.7569C206.367 75.9126 206.333 76.0802 206.333 76.2496C206.333 79.1893 206.537 82.0094 208.867 84.189C208.845 84.4525 208.833 84.7207 208.833 84.9936V88.7591H203.868C203.196 88.7591 202.618 89.2762 202.585 89.9488C202.576 90.118 202.603 90.287 202.662 90.4457C202.721 90.6043 202.812 90.7493 202.929 90.8718C203.046 90.9943 203.186 91.0918 203.342 91.1584C203.498 91.2249 203.665 91.2591 203.835 91.2589H208.834V92.4987C208.833 93.9359 209.109 95.3599 209.646 96.693C207.641 98.4858 206.347 100.467 206.333 103.696C206.333 104.379 206.85 104.97 207.533 104.997C207.701 105.004 207.869 104.977 208.026 104.917C208.184 104.857 208.327 104.766 208.449 104.65C208.57 104.533 208.667 104.393 208.733 104.238C208.799 104.083 208.833 103.916 208.833 103.748C208.833 101.587 209.544 100.255 210.877 98.9577C212.415 101.147 214.681 102.718 217.27 103.39C217.454 103.438 217.648 103.443 217.834 103.404C218.021 103.366 218.197 103.285 218.348 103.168C218.498 103.051 218.62 102.902 218.704 102.73C218.788 102.559 218.832 102.371 218.832 102.18V82.5344C218.832 81.8618 219.349 81.2845 220.022 81.2509C220.191 81.2428 220.36 81.269 220.518 81.3281C220.677 81.3871 220.822 81.4778 220.944 81.5945C221.067 81.7112 221.164 81.8516 221.231 82.0071C221.298 82.1626 221.332 82.3301 221.332 82.4993V102.18C221.332 102.371 221.376 102.559 221.46 102.73C221.544 102.902 221.666 103.051 221.817 103.168C221.967 103.285 222.143 103.366 222.33 103.404C222.517 103.443 222.71 103.438 222.894 103.39C225.483 102.717 227.748 101.146 229.286 98.9577C230.614 100.25 231.324 101.576 231.331 103.719C231.328 104.042 231.448 104.354 231.667 104.592C231.886 104.83 232.188 104.975 232.51 104.998C232.68 105.008 232.85 104.982 233.01 104.924C233.17 104.866 233.317 104.775 233.44 104.658C233.564 104.541 233.663 104.4 233.73 104.243C233.797 104.087 233.832 103.918 233.831 103.748C233.831 100.492 232.534 98.496 230.52 96.693C231.057 95.3599 231.333 93.9359 231.331 92.4987V91.2589H236.331C236.5 91.2591 236.668 91.2249 236.824 91.1584C236.979 91.0918 237.12 90.9943 237.237 90.8718C237.354 90.7493 237.445 90.6043 237.504 90.4457C237.563 90.287 237.589 90.118 237.581 89.9488C237.548 89.2762 236.969 88.7591 236.296 88.7591Z" fill="black"/>
<path d="M225.19 75.6247L225.215 75.6317C226.275 75.9286 227.174 74.8075 226.637 73.8467C225.989 72.6813 225.04 71.7103 223.891 71.0341C222.741 70.3578 221.432 70.0008 220.098 70H220.066C218.718 70.0009 217.397 70.3652 216.239 71.0544C215.082 71.7436 214.131 72.7322 213.489 73.9162C212.954 74.8989 213.89 76.0254 214.96 75.702C216.5 75.2333 218.225 74.9942 220.082 74.9942C221.964 74.9942 223.683 75.2067 225.19 75.6247Z" fill="black"/>
</g>
<defs>
<filter id="filter0_d_805_241" x="0" y="0" width="300" height="160" filterUnits="userSpaceOnUse" color-interpolation-filters="sRGB">
<feFlood flood-opacity="0" result="BackgroundImageFix"/>
<feColorMatrix in="SourceAlpha" type="matrix" values="0 0 0 0 0 0 0 0 0 0 0 0 0 0 0 0 0 0 127 0" result="hardAlpha"/>
<feMorphology radius="2" operator="erode" in="SourceAlpha" result="effect1_dropShadow_805_241"/>
<feOffset dy="4"/>
<feGaussianBlur stdDeviation="6"/>
<feComposite in2="hardAlpha" operator="out"/>
<feColorMatrix type="matrix" values="0 0 0 0 0.258824 0 0 0 0 0.301961 0 0 0 0 0.462745 0 0 0 1 0"/>
<feBlend mode="normal" in2="BackgroundImageFix" result="effect1_dropShadow_805_241"/>
<feBlend mode="normal" in="SourceGraphic" in2="effect1_dropShadow_805_241" result="shape"/>
</filter>
</defs>
</svg>
