<svg width="300" height="160" viewBox="0 0 300 160" fill="none" xmlns="http://www.w3.org/2000/svg">
<g filter="url(#filter0_d_805_200)">
<rect x="10" y="6" width="280" height="140" rx="12" fill="white"/>
<rect x="10.5" y="6.5" width="279" height="139" rx="11.5" stroke="#3F4D79"/>
<path d="M10 18C10 11.3726 15.3726 6 22 6H278C284.627 6 290 11.3726 290 18V39H10V18Z" fill="#424D76"/>
<path d="M124.998 15.5188H127.992L131.153 23.2327H131.288L134.45 15.5188H137.443V27H135.089V19.5271H134.993L132.022 26.9439H130.419L127.448 19.4991H127.352V27H124.998V15.5188ZM139.398 27V18.3891H141.787V27H139.398ZM140.598 17.2791C140.243 17.2791 139.938 17.1614 139.684 16.9259C139.434 16.6867 139.309 16.4008 139.309 16.0682C139.309 15.7393 139.434 15.4571 139.684 15.2217C139.938 14.9825 140.243 14.8629 140.598 14.8629C140.953 14.8629 141.256 14.9825 141.506 15.2217C141.76 15.4571 141.888 15.7393 141.888 16.0682C141.888 16.4008 141.76 16.6867 141.506 16.9259C141.256 17.1614 140.953 17.2791 140.598 17.2791ZM146.088 22.0218V27H143.7V18.3891H145.976V19.9083H146.077C146.267 19.4075 146.587 19.0114 147.035 18.7198C147.484 18.4246 148.028 18.277 148.667 18.277C149.265 18.277 149.786 18.4078 150.231 18.6694C150.676 18.931 151.021 19.3047 151.268 19.7906C151.515 20.2727 151.638 20.8483 151.638 21.5173V27H149.25V21.9433C149.253 21.4164 149.119 21.0053 148.846 20.71C148.573 20.411 148.198 20.2615 147.719 20.2615C147.398 20.2615 147.114 20.3307 146.867 20.4689C146.624 20.6072 146.434 20.809 146.295 21.0744C146.161 21.336 146.092 21.6518 146.088 22.0218ZM157.4 30.4085C156.626 30.4085 155.962 30.302 155.409 30.0889C154.86 29.8796 154.423 29.5937 154.098 29.2312C153.772 28.8687 153.561 28.4613 153.464 28.0091L155.673 27.712C155.74 27.8839 155.847 28.0446 155.992 28.1941C156.138 28.3436 156.331 28.4632 156.57 28.5529C156.813 28.6463 157.108 28.693 157.456 28.693C157.975 28.693 158.403 28.566 158.739 28.3118C159.079 28.0614 159.25 27.641 159.25 27.0505V25.4752H159.149C159.044 25.7143 158.887 25.9405 158.678 26.1535C158.468 26.3665 158.199 26.5403 157.87 26.6748C157.542 26.8094 157.149 26.8767 156.693 26.8767C156.047 26.8767 155.458 26.7272 154.927 26.4282C154.4 26.1255 153.98 25.6639 153.666 25.0435C153.356 24.4193 153.201 23.6308 153.201 22.6777C153.201 21.7023 153.359 20.8875 153.677 20.2335C153.995 19.5794 154.417 19.0898 154.944 18.7647C155.475 18.4395 156.056 18.277 156.688 18.277C157.17 18.277 157.573 18.3592 157.898 18.5236C158.224 18.6843 158.485 18.8862 158.683 19.1291C158.885 19.3683 159.04 19.6037 159.149 19.8355H159.238V18.3891H161.61V27.0841C161.61 27.8166 161.43 28.4295 161.071 28.9229C160.713 29.4162 160.216 29.7862 159.58 30.0329C158.949 30.2833 158.222 30.4085 157.4 30.4085ZM157.45 25.0827C157.835 25.0827 158.16 24.9874 158.425 24.7968C158.695 24.6025 158.9 24.3259 159.042 23.9671C159.188 23.6046 159.261 23.1711 159.261 22.6665C159.261 22.162 159.19 21.7247 159.048 21.3547C158.906 20.981 158.7 20.6913 158.431 20.4858C158.162 20.2802 157.835 20.1774 157.45 20.1774C157.058 20.1774 156.727 20.2839 156.458 20.497C156.189 20.7063 155.985 20.9978 155.847 21.3715C155.708 21.7453 155.639 22.1769 155.639 22.6665C155.639 23.1636 155.708 23.5934 155.847 23.9559C155.989 24.3147 156.192 24.5931 156.458 24.7912C156.727 24.9856 157.058 25.0827 157.45 25.0827ZM173.685 19.5383H171.23C171.185 19.2207 171.093 18.9385 170.955 18.6918C170.817 18.4414 170.639 18.2284 170.422 18.0527C170.206 17.8771 169.955 17.7425 169.671 17.6491C169.391 17.5557 169.086 17.5089 168.757 17.5089C168.163 17.5089 167.646 17.6566 167.205 17.9518C166.763 18.2433 166.422 18.6694 166.179 19.23C165.936 19.7869 165.814 20.4633 165.814 21.2594C165.814 22.0779 165.936 22.7656 166.179 23.3224C166.425 23.8793 166.769 24.2997 167.21 24.5838C167.651 24.8678 168.161 25.0098 168.741 25.0098C169.066 25.0098 169.367 24.9669 169.643 24.8809C169.923 24.7949 170.172 24.6697 170.389 24.5053C170.606 24.3371 170.785 24.1334 170.927 23.8942C171.073 23.6551 171.174 23.3822 171.23 23.0758L173.685 23.087C173.622 23.6139 173.463 24.1222 173.209 24.6118C172.958 25.0977 172.62 25.5331 172.194 25.918C171.772 26.2992 171.267 26.602 170.68 26.8262C170.097 27.0467 169.438 27.157 168.701 27.157C167.677 27.157 166.762 26.9253 165.954 26.4618C165.151 25.9984 164.515 25.3275 164.048 24.4492C163.585 23.571 163.353 22.5077 163.353 21.2594C163.353 20.0074 163.589 18.9422 164.06 18.0639C164.53 17.1857 165.17 16.5167 165.977 16.057C166.784 15.5935 167.692 15.3618 168.701 15.3618C169.367 15.3618 169.983 15.4553 170.551 15.6421C171.123 15.829 171.63 16.1018 172.071 16.4606C172.512 16.8157 172.87 17.2511 173.147 17.7668C173.427 18.2826 173.607 18.8731 173.685 19.5383ZM180.903 23.3336V18.3891H183.291V27H180.998V25.4359H180.909C180.714 25.9405 180.391 26.346 179.939 26.6524C179.49 26.9589 178.943 27.1121 178.296 27.1121C177.721 27.1121 177.214 26.9813 176.777 26.7197C176.34 26.4581 175.998 26.0862 175.751 25.6041C175.508 25.122 175.385 24.5445 175.381 23.8718V18.3891H177.769V23.4458C177.773 23.954 177.909 24.3558 178.178 24.6511C178.447 24.9463 178.808 25.0939 179.26 25.0939C179.548 25.0939 179.817 25.0285 180.068 24.8977C180.318 24.7632 180.52 24.5651 180.673 24.3035C180.83 24.0419 180.907 23.7186 180.903 23.3336ZM189.782 18.3891V20.183H184.596V18.3891H189.782ZM185.773 16.3261H188.161V24.3539C188.161 24.5744 188.195 24.7464 188.262 24.8697C188.33 24.9893 188.423 25.0734 188.543 25.122C188.666 25.1706 188.808 25.1948 188.969 25.1948C189.081 25.1948 189.193 25.1855 189.305 25.1668C189.417 25.1444 189.503 25.1276 189.563 25.1164L189.938 26.8935C189.819 26.9309 189.651 26.9738 189.434 27.0224C189.217 27.0747 188.954 27.1065 188.643 27.1177C188.068 27.1402 187.563 27.0635 187.13 26.8879C186.7 26.7122 186.366 26.4394 186.126 26.0694C185.887 25.6994 185.769 25.2322 185.773 24.6679V16.3261ZM195.169 27.1682C194.283 27.1682 193.521 26.9888 192.882 26.63C192.246 26.2675 191.757 25.7555 191.413 25.0939C191.069 24.4287 190.897 23.642 190.897 22.7338C190.897 21.848 191.069 21.0707 191.413 20.4017C191.757 19.7327 192.241 19.2113 192.865 18.8376C193.493 18.4638 194.229 18.277 195.074 18.277C195.642 18.277 196.171 18.3685 196.66 18.5517C197.153 18.7311 197.583 19.002 197.95 19.3645C198.32 19.7271 198.607 20.183 198.813 20.7324C199.018 21.2781 199.121 21.9172 199.121 22.6497V23.3056H191.85V21.8256H196.873C196.873 21.4818 196.798 21.1772 196.649 20.9118C196.499 20.6465 196.292 20.439 196.027 20.2895C195.765 20.1363 195.46 20.0597 195.113 20.0597C194.75 20.0597 194.429 20.1438 194.149 20.312C193.872 20.4764 193.655 20.6988 193.498 20.9791C193.341 21.2557 193.261 21.564 193.257 21.9041V23.3112C193.257 23.7373 193.336 24.1054 193.493 24.4156C193.653 24.7258 193.88 24.965 194.171 25.1332C194.463 25.3014 194.808 25.3855 195.208 25.3855C195.474 25.3855 195.716 25.3481 195.937 25.2733C196.157 25.1986 196.346 25.0865 196.503 24.937C196.66 24.7875 196.78 24.6043 196.862 24.3876L199.071 24.5333C198.959 25.064 198.729 25.5275 198.381 25.9236C198.037 26.3161 197.593 26.6225 197.047 26.843C196.505 27.0598 195.879 27.1682 195.169 27.1682Z" fill="white"/>
<g clip-path="url(#clip0_805_200)">
<path d="M120 12H100V32H120V12Z" fill="white" fill-opacity="0.01"/>
<path d="M101.624 15.2598C101.644 14.9007 102.026 14.6795 102.347 14.8403L106.377 16.8553C106.553 16.9433 106.661 17.1266 106.653 17.3233L106.263 26.6948C106.255 26.8822 106.143 27.0494 105.973 27.128L101.588 29.1516C101.246 29.3096 100.859 29.0463 100.879 28.6699L101.624 15.2598Z" fill="#007AFF"/>
<path d="M118.376 15.2598C118.356 14.9007 117.974 14.6795 117.653 14.8403L113.623 16.8553C113.447 16.9433 113.339 17.1266 113.347 17.3233L113.737 26.6948C113.745 26.8822 113.857 27.0494 114.027 27.128L118.412 29.1516C118.754 29.3096 119.141 29.0463 119.121 28.6699L118.376 15.2598Z" fill="#FDAD15"/>
<path d="M107.474 17.6445C107.486 17.3422 107.806 17.1532 108.077 17.2885L109.627 18.0637C109.862 18.181 110.138 18.181 110.373 18.0637L111.923 17.2885C112.194 17.1532 112.514 17.3422 112.526 17.6445L112.899 26.9669C112.91 27.2476 112.779 27.515 112.55 27.6784L110.291 29.2924C110.117 29.4166 109.883 29.4166 109.709 29.2924L107.45 27.6784C107.221 27.515 107.09 27.2476 107.101 26.9669L107.474 17.6445Z" fill="#2AC670"/>
</g>
<path fill-rule="evenodd" clip-rule="evenodd" d="M90.4215 83.5223L70.5254 103.418C74.9744 104.313 79.632 103.161 83.1687 100.214L87.2299 96.8298L84.492 94.0921C83.7802 93.3801 83.7802 92.226 84.492 91.514L91.4527 84.5535L90.4215 83.5223ZM88.8746 80.9443C89.7289 80.09 91.1139 80.09 91.9682 80.9443L94.0306 83.0067C94.8848 83.861 94.8848 85.246 94.0306 86.1003L87.3279 92.803L90.1391 95.6144C90.897 96.3723 90.8406 97.6176 90.0171 98.3037L85.036 102.455C80.2425 106.449 73.7232 107.68 67.8035 105.706C66.5317 105.282 66.1507 103.668 67.0986 102.72L88.8746 80.9443Z" fill="#09244B"/>
<path fill-rule="evenodd" clip-rule="evenodd" d="M138.695 84.3222C137.754 81.6879 139.707 78.9166 142.504 78.9166C143.512 78.9166 144.445 79.288 145.161 79.9112C145.876 79.2945 146.809 78.9166 147.844 78.9166C148.856 78.9166 149.783 79.2823 150.5 79.8888C151.217 79.2823 152.144 78.9166 153.156 78.9166C154.191 78.9166 155.125 79.2945 155.84 79.9112C156.555 79.288 157.488 78.9166 158.496 78.9166C161.293 78.9166 163.246 81.6879 162.305 84.3222L156.333 101.044V102.25C156.333 105.472 153.722 108.083 150.5 108.083C147.278 108.083 144.667 105.472 144.667 102.25V101.044L138.695 84.3222ZM147.583 100.825C147.584 100.814 147.584 100.803 147.584 100.792H153.416C153.416 100.804 153.417 100.816 153.417 100.828V102.25C153.417 103.861 152.111 105.167 150.5 105.167C148.889 105.167 147.583 103.861 147.583 102.25V100.825ZM154.368 97.875H146.632L141.441 83.3413C141.179 82.6064 141.724 81.8333 142.504 81.8333C143.05 81.8333 143.518 82.2243 143.615 82.7618L145.857 95.2167C145.999 96.0093 146.757 96.5362 147.55 96.3936C148.343 96.2508 148.87 95.4926 148.727 94.6999L146.665 83.2434C146.534 82.5092 147.098 81.8333 147.844 81.8333C148.505 81.8333 149.042 82.3696 149.042 83.0312V94.9583C149.042 95.7637 149.695 96.4166 150.5 96.4166C151.306 96.4166 151.958 95.7637 151.958 94.9583V83.0312C151.958 82.3696 152.495 81.8333 153.156 81.8333C153.898 81.8333 154.461 82.5008 154.338 83.2306L152.273 94.6999C152.13 95.4926 152.657 96.2508 153.45 96.3936C153.5 96.4025 153.549 96.4088 153.598 96.4125C153.707 96.421 153.814 96.4171 153.918 96.4019C154.522 96.3141 155.03 95.8502 155.144 95.2167L157.206 83.7601L157.21 83.7363L157.386 82.7618C157.482 82.2243 157.95 81.8333 158.496 81.8333C159.276 81.8333 159.821 82.6064 159.559 83.3413L154.368 97.875Z" fill="#09244B"/>
<path d="M220.5 78.9166C228.554 78.9166 235.083 85.4458 235.083 93.5C235.083 101.554 228.554 108.083 220.5 108.083C212.446 108.083 205.917 101.554 205.917 93.5C205.917 85.4458 212.446 78.9166 220.5 78.9166ZM221.958 84.75C221.153 84.75 220.5 85.4029 220.5 86.2083V87.6666H219.042V86.2083C219.042 85.4029 218.389 84.75 217.583 84.75C216.778 84.75 216.125 85.4029 216.125 86.2083V87.6666H214.667C213.861 87.6666 213.208 88.3196 213.208 89.125C213.208 89.9304 213.861 90.5833 214.667 90.5833V96.4166C213.861 96.4166 213.208 97.0695 213.208 97.875C213.208 98.6804 213.861 99.3333 214.667 99.3333H216.125V100.792C216.125 101.597 216.778 102.25 217.583 102.25C218.389 102.25 219.042 101.597 219.042 100.792V99.3333H220.5V100.792C220.5 101.597 221.153 102.25 221.958 102.25C222.764 102.25 223.417 101.597 223.417 100.792V99.3333H224.146C226.159 99.3333 227.792 97.701 227.792 95.6875C227.792 94.8667 227.52 94.1093 227.063 93.5C227.52 92.8907 227.792 92.1332 227.792 91.3125C227.792 89.2989 226.159 87.6666 224.146 87.6666H223.417V86.2083C223.417 85.4029 222.764 84.75 221.958 84.75ZM224.146 94.9583C224.548 94.9583 224.875 95.2848 224.875 95.6875C224.875 96.0901 224.548 96.4166 224.146 96.4166H217.583V94.9583H224.146ZM224.146 90.5833C224.548 90.5833 224.875 90.9098 224.875 91.3125C224.875 91.6704 224.617 91.9681 224.277 92.0299L224.146 92.0416H217.583V90.5833H224.146Z" fill="#09244B"/>
</g>
<defs>
<filter id="filter0_d_805_200" x="0" y="0" width="300" height="160" filterUnits="userSpaceOnUse" color-interpolation-filters="sRGB">
<feFlood flood-opacity="0" result="BackgroundImageFix"/>
<feColorMatrix in="SourceAlpha" type="matrix" values="0 0 0 0 0 0 0 0 0 0 0 0 0 0 0 0 0 0 127 0" result="hardAlpha"/>
<feMorphology radius="2" operator="erode" in="SourceAlpha" result="effect1_dropShadow_805_200"/>
<feOffset dy="4"/>
<feGaussianBlur stdDeviation="6"/>
<feComposite in2="hardAlpha" operator="out"/>
<feColorMatrix type="matrix" values="0 0 0 0 0.258824 0 0 0 0 0.301961 0 0 0 0 0.462745 0 0 0 1 0"/>
<feBlend mode="normal" in2="BackgroundImageFix" result="effect1_dropShadow_805_200"/>
<feBlend mode="normal" in="SourceGraphic" in2="effect1_dropShadow_805_200" result="shape"/>
</filter>
<clipPath id="clip0_805_200">
<rect width="20" height="20" fill="white" transform="translate(100 12)"/>
</clipPath>
</defs>
</svg>
